<?xml version="1.0" encoding="utf-8"?>
<!-- Generator: Adobe Illustrator 24.0.2, SVG Export Plug-In . SVG Version: 6.00 Build 0)  -->
<svg version="1.1" id="레이어_1" xmlns="http://www.w3.org/2000/svg" xmlns:xlink="http://www.w3.org/1999/xlink" x="0px"
	 y="0px" viewBox="0 0 284 284" style="enable-background:new 0 0 284 284;" xml:space="preserve">
<style type="text/css">
	.st0{fill:#FFFFFF;}
	.st1{fill:#707070;}
	.st2{fill:#6FB1B9;}
</style>
<g id="그룹_235" transform="translate(-1059 -5402)">
	<g id="그룹_230" transform="translate(748.999 984.999)">
		<g id="타원_188">
			<circle class="st0" cx="452.5" cy="4558.6" r="142"/>
		</g>
		<g id="패스_352">
			<rect x="311.4" y="4573.5" class="st1" width="281.8" height="1"/>
		</g>
		<g id="패스_402">
			<path class="st2" d="M433,4535.6l-14.7-14.7l-30,30l-29.8-29.8l-14.7,14.7l34.2,34.2v46.1h20.7v-46.4L433,4535.6z"/>
			<path d="M400.4,4617.7h-23.7v-46.9l-34.8-34.8l16.8-16.8l29.8,29.8l30-30l16.8,16.8l-34.8,34.8V4617.7z M379.6,4614.7h17.7v-45.5
				l33.5-33.5l-12.6-12.6l-30,30l-29.8-29.8l-12.6,12.5l33.6,33.6V4614.7z"/>
		</g>
	</g>
	<g id="그룹_234">
		<g id="그룹_231" transform="translate(-320.041 4167.215)">
			<g id="패스_449">
				<path class="st2" d="M1543.9,1334.5c-1.7-1.1-3.8-3.6-5.8-7c-2-3.3-3-6.9-4.1-9.7c-1.1,2.8-2.1,6.4-4.1,9.7
					c-2,3.4-4.1,5.9-5.8,7c2.4,1.9,4.3,4.3,5.8,6.9c2,3.4,3,7,4.1,9.9c1.1-2.9,2.1-6.5,4.1-9.9
					C1539.6,1338.8,1541.5,1336.4,1543.9,1334.5z"/>
			</g>
		</g>
		<g id="그룹_232" transform="translate(-255.095 4189.958)">
			<g id="패스_449-2">
				<path class="st2" d="M1556,1344.7c-2.7-1.8-6.1-5.8-9.3-11.2c-3.2-5.4-4.8-11.1-6.6-15.6c-1.8,4.6-3.4,10.3-6.6,15.6
					c-3.2,5.5-6.6,9.4-9.3,11.2c2.7,1.8,6.1,5.8,9.3,11.2c3.2,5.5,4.9,11.3,6.7,15.9c1.8-4.6,3.4-10.4,6.7-15.9
					C1549.9,1350.5,1553.3,1346.6,1556,1344.7z"/>
			</g>
		</g>
		<g id="그룹_233" transform="translate(-296.489 4273.233)">
			<g id="패스_449-3">
				<path class="st2" d="M1536.8,1328.5c-1.5-1.2-2.8-2.7-3.7-4.5c-1-2-1.9-4.1-2.6-6.2c-0.7,2.1-1.6,4.2-2.6,6.2
					c-0.9,1.7-2.2,3.2-3.7,4.5c1.5,1.2,2.8,2.7,3.7,4.4c1.1,2,2,4.1,2.6,6.3c0.7-2.2,1.6-4.3,2.6-6.3
					C1534,1331.3,1535.3,1329.8,1536.8,1328.5z"/>
			</g>
		</g>
	</g>
</g>
</svg>
