<svg xmlns="http://www.w3.org/2000/svg" width="284" height="284" viewBox="0 0 284 284"><g transform="translate(-1355.999 -4417)"><path d="M142,0A142,142,0,1,1,0,142,142,142,0,0,1,142,0Z" transform="translate(1355.999 4417)" fill="#fff"/><path d="M200.3,12271.383l172.716-.15" transform="translate(1265.402 -7734.845)" fill="none" stroke="#707070" stroke-width="1"/><path d="M200.3,12271.383h58.783" transform="translate(1157.267 -7734.834)" fill="none" stroke="#707070" stroke-width="1"/><path d="M840.76,19547.109s-20.41,18.654-35.846,15.477-8.987-16.219-.6-14.043,5.856,9.234,2.615,9.02" transform="translate(699.801 -15106.055)" fill="none" stroke="#313131" stroke-linecap="round" stroke-width="2"/><path d="M840.76,19547.109s-20.41,18.654-35.846,15.477-8.987-16.219-.6-14.043,5.856,9.234,2.615,9.02" transform="translate(742.689 -15079.608)" fill="none" stroke="#313131" stroke-linecap="round" stroke-width="2"/><path d="M1472.51,19639.33s-2.977,79.146,26.44,89.115" transform="translate(37.993 -15080.329)" fill="none" stroke="#6fb1b9" stroke-linecap="round" stroke-width="5"/><path d="M1472.51,19639.33s-2.977,79.146,26.44,89.115" transform="translate(14.223 -15080.329)" fill="none" stroke="#6fb1b9" stroke-linecap="round" stroke-width="5"/><path d="M1472.51,19639.33s-2.977,79.146,26.44,89.115" transform="translate(-6.151 -15080.329)" fill="none" stroke="#6fb1b9" stroke-linecap="round" stroke-width="5"/><ellipse cx="7.422" cy="7.422" rx="7.422" ry="7.422" transform="translate(1435.009 4647.299)" fill="#8dc794"/><g transform="translate(4 -4)"><ellipse cx="7.422" cy="7.422" rx="7.422" ry="7.422" transform="translate(1471.098 4666.144)" fill="#8dc794"/><ellipse cx="7.422" cy="7.422" rx="7.422" ry="7.422" transform="translate(1473.666 4674.137)" fill="#8dc794"/></g><g transform="translate(-5 1)"><ellipse cx="7.422" cy="7.422" rx="7.422" ry="7.422" transform="translate(1544.287 4616.507)" fill="#8dc794"/><ellipse cx="7.422" cy="7.422" rx="7.422" ry="7.422" transform="translate(1553.275 4608.803)" fill="#8dc794"/><ellipse cx="7.422" cy="7.422" rx="7.422" ry="7.422" transform="translate(1555.843 4617.792)" fill="#8dc794"/><ellipse cx="7.422" cy="7.422" rx="7.422" ry="7.422" transform="translate(1564.832 4615.224)" fill="#8dc794"/></g><ellipse cx="3.997" cy="3.997" rx="3.997" ry="3.997" transform="translate(1439.473 4611.041)" fill="#8dc794"/><g transform="translate(1369.275 4521.369)"><path d="M473.658,449l-27.74,27.967v44.794h-4.642V476.967L413.705,449" transform="translate(-388.243 -433.682)" fill="#6fb1b9" stroke="#000" stroke-miterlimit="10" stroke-width="2"/><path d="M412.851,383,394.98,393.908H323.728L305.625,383,304,386.946l18.8,11.373h72.645l19.264-11.373Z" transform="translate(-304 -383)" fill="#6fb1b9" stroke="#000" stroke-miterlimit="10" stroke-width="2"/></g></g></svg>