<svg xmlns="http://www.w3.org/2000/svg" width="284" height="284" viewBox="0 0 284 284"><g transform="translate(-1006.999 -4417)"><circle cx="142" cy="142" r="142" transform="translate(1006.999 4417)" fill="#fff"/><path d="M195.245,12271.383h26.443" transform="translate(1068.585 -7696.819)" fill="none" stroke="#707070" stroke-width="1"/><path d="M200.3,12271.383h59.62" transform="translate(807.43 -7696.819)" fill="none" stroke="#707070" stroke-width="1"/><path d="M840.76,19547.109s-20.41,18.654-35.846,15.477-8.987-16.219-.6-14.043,5.856,9.234,2.615,9.02" transform="translate(350.801 -15064.742)" fill="none" stroke="#313131" stroke-linecap="round" stroke-width="2"/><path d="M840.76,19547.109s-20.41,18.654-35.846,15.477-8.987-16.219-.6-14.043,5.856,9.234,2.615,9.02" transform="translate(393.689 -15041.325)" fill="none" stroke="#313131" stroke-linecap="round" stroke-width="2"/><path d="M1229.1,19658.248s-109.909-2.119-125.143,52.549" transform="translate(15.343 -15033.997)" fill="none" stroke="#6fb1b9" stroke-linecap="round" stroke-width="5"/><path d="M1229.088,19658.248s-102.028-2.512-126.554,42.449" transform="translate(15.352 -15062.842)" fill="none" stroke="#6fb1b9" stroke-linecap="round" stroke-width="5"/><path d="M1229.1,19658.248s-95.276-2.34-124.238,38.168" transform="translate(15.337 -15087.2)" fill="none" stroke="#8dc794" stroke-linecap="round" stroke-width="5"/><g transform="translate(1026.275 4559.369)"><path d="M473.658,449l-27.74,27.967v44.794h-4.642V476.967L413.705,449" transform="translate(-388.243 -433.682)" fill="#6fb1b9" stroke="#000" stroke-miterlimit="10" stroke-width="2"/><path d="M412.851,383,394.98,393.908H323.728L305.625,383,304,386.946l18.8,11.373h72.645l19.264-11.373Z" transform="translate(-304 -383)" fill="#6fb1b9" stroke="#000" stroke-miterlimit="10" stroke-width="2"/></g></g></svg>