<?xml version="1.0" encoding="utf-8"?>
<!-- Generator: Adobe Illustrator 24.0.2, SVG Export Plug-In . SVG Version: 6.00 Build 0)  -->
<svg version="1.1" id="레이어_1" xmlns="http://www.w3.org/2000/svg" xmlns:xlink="http://www.w3.org/1999/xlink" x="0px"
	 y="0px" viewBox="0 0 284 284" style="enable-background:new 0 0 284 284;" xml:space="preserve">
<style type="text/css">
	.st0{fill:#FFFFFF;}
	.st1{fill:#707070;}
	.st2{fill:#6FB1B9;}
	.st3{fill:#313131;}
	.st4{fill:#8DC794;}
</style>
<g id="그룹_222" transform="translate(-1006.999 -4417)">
	<g id="타원_223">
		<circle class="st0" cx="1149.5" cy="4558.6" r="142"/>
	</g>
	<g id="패스_415">
		<rect x="1264.3" y="4573.7" class="st1" width="26.4" height="1"/>
	</g>
	<g id="패스_418">
		<rect x="1008.2" y="4573.7" class="st1" width="59.6" height="1"/>
	</g>
	<g id="패스_416">
		<path class="st2" d="M1118.4,4539.5l-13.3-13.3l-27.2,27.2l-26.9-26.9l-13.3,13.3l31,31v41.7h18.8v-42L1118.4,4539.5z"/>
		<path d="M1089,4613.8h-21.8v-42.6l-31.6-31.6l15.4-15.4l26.9,26.9l27.2-27.2l15.4,15.4L1089,4571V4613.8z M1070.2,4610.8h15.8
			v-41.1l30.3-30.3l-11.2-11.2l-27.2,27.2l-26.9-26.9l-11.2,11.2l30.3,30.3V4610.8z"/>
	</g>
	<g id="패스_412">
		<path class="st3" d="M1160,4498.8c-1.4,0-2.7-0.1-4-0.4c-7.2-1.5-9.3-4.9-9.9-6.8c-0.8-2.4-0.1-5,1.8-7c2-2.2,5-3,8-2.2
			c5.3,1.4,6.8,4.6,6.4,7.2c-0.4,2.2-2.1,3.9-4.1,3.8c-0.6,0-1-0.5-0.9-1.1c0-0.6,0.5-1,1.1-0.9c0.9,0.1,1.8-0.9,1.9-2.1
			c0.3-1.7-0.9-3.9-4.9-5c-2.2-0.6-4.5,0-6,1.7c-1.3,1.4-1.8,3.3-1.3,5c0.8,2.6,3.8,4.5,8.4,5.5c14.8,3,34.8-15.1,35-15.2
			c0.4-0.4,1-0.3,1.4,0.1c0.4,0.4,0.3,1-0.1,1.4c-0.2,0.2-5.3,4.8-12.3,9C1172.7,4496.4,1165.8,4498.8,1160,4498.8z"/>
	</g>
	<g id="패스_411">
		<path class="st3" d="M1202.9,4522.2c-1.4,0-2.7-0.1-4-0.4c-7.2-1.5-9.3-4.9-9.9-6.8c-0.8-2.4-0.1-5,1.8-7c2-2.2,5-3,8-2.2
			c5.3,1.4,6.8,4.6,6.4,7.2c-0.4,2.2-2.1,3.9-4.1,3.8c-0.6,0-1-0.5-0.9-1.1c0-0.6,0.5-1,1.1-0.9c0.9,0.1,1.8-0.9,1.9-2.1
			c0.3-1.7-0.9-3.9-4.9-5c-2.2-0.6-4.5,0-6,1.7c-1.3,1.4-1.8,3.3-1.3,5c0.8,2.6,3.8,4.5,8.4,5.5c14.8,3,34.8-15.1,35-15.2
			c0.4-0.4,1-0.3,1.4,0.1c0.4,0.4,0.3,1-0.1,1.4c-0.2,0.2-5.3,4.8-12.3,9C1215.6,4519.9,1208.7,4522.2,1202.9,4522.2z"/>
	</g>
	<g id="패스_421">
		<path class="st2" d="M1119.8,4678.9c-0.2,0-0.4,0-0.7-0.1c-1.3-0.4-2.1-1.7-1.7-3.1c6.5-23.3,30.8-40.1,70.2-48.5
			c29.3-6.3,57.2-5.8,57.4-5.8c1.4,0,2.5,1.2,2.5,2.5c0,1.4-1.1,2.5-2.5,2.5c-1.1,0-108.1-1.5-122.7,50.7
			C1121.9,4678.2,1120.9,4678.9,1119.8,4678.9z"/>
	</g>
	<g id="패스_422">
		<path class="st2" d="M1118.4,4639.9c-0.4,0-0.8-0.1-1.2-0.3c-1.2-0.7-1.7-2.2-1-3.4c10.6-19.3,35.5-32.6,74.2-39.4
			c28.5-5,54.3-4.4,54.6-4.4c1.4,0,2.5,1.2,2.4,2.6c0,1.4-1.1,2.5-2.6,2.4c-1,0-100.8-2-124.3,41.1
			C1120.1,4639.5,1119.3,4639.9,1118.4,4639.9z"/>
	</g>
	<g id="패스_423">
		<path class="st4" d="M1120.7,4611.3c-0.5,0-1-0.2-1.5-0.5c-1.1-0.8-1.4-2.4-0.6-3.5c12.4-17.4,37.5-29.2,74.6-35.3
			c27.4-4.5,51.5-3.9,51.7-3.9c1.4,0,2.5,1.2,2.4,2.6c0,1.4-1.1,2.5-2.6,2.4c-0.9,0-94.3-1.8-122.1,37.1
			C1122.2,4610.9,1121.5,4611.3,1120.7,4611.3z"/>
	</g>
</g>
<g id="그룹_228" transform="translate(-1006.999 -4417)">
	<g id="타원_223-2">
		<circle class="st0" cx="1149.5" cy="4558.6" r="142"/>
	</g>
	<g id="패스_415-2">
		<rect x="1264.3" y="4573.7" class="st1" width="26.4" height="1"/>
	</g>
	<g id="패스_418-2">
		<rect x="1008.2" y="4573.7" class="st1" width="59.6" height="1"/>
	</g>
	<g id="패스_416-2">
		<path class="st2" d="M1118.4,4539.5l-13.3-13.3l-27.2,27.2l-26.9-26.9l-13.3,13.3l31,31v41.7h18.8v-42L1118.4,4539.5z"/>
		<path d="M1089,4613.8h-21.8v-42.6l-31.6-31.6l15.4-15.4l26.9,26.9l27.2-27.2l15.4,15.4L1089,4571V4613.8z M1070.2,4610.8h15.8
			v-41.1l30.3-30.3l-11.2-11.2l-27.2,27.2l-26.9-26.9l-11.2,11.2l30.3,30.3V4610.8z"/>
	</g>
	<g id="패스_412-2">
		<path class="st3" d="M1160,4498.8c-1.4,0-2.7-0.1-4-0.4c-7.2-1.5-9.3-4.9-9.9-6.8c-0.8-2.4-0.1-5,1.8-7c2-2.2,5-3,8-2.2
			c5.3,1.4,6.8,4.6,6.4,7.2c-0.4,2.2-2.1,3.9-4.1,3.8c-0.6,0-1-0.5-0.9-1.1c0-0.6,0.5-1,1.1-0.9c0.9,0.1,1.8-0.9,1.9-2.1
			c0.3-1.7-0.9-3.9-4.9-5c-2.2-0.6-4.5,0-6,1.7c-1.3,1.4-1.8,3.3-1.3,5c0.8,2.6,3.8,4.5,8.4,5.5c14.8,3,34.8-15.1,35-15.2
			c0.4-0.4,1-0.3,1.4,0.1c0.4,0.4,0.3,1-0.1,1.4c-0.2,0.2-5.3,4.8-12.3,9C1172.7,4496.4,1165.8,4498.8,1160,4498.8z"/>
	</g>
	<g id="패스_411-2">
		<path class="st3" d="M1202.9,4522.2c-1.4,0-2.7-0.1-4-0.4c-7.2-1.5-9.3-4.9-9.9-6.8c-0.8-2.4-0.1-5,1.8-7c2-2.2,5-3,8-2.2
			c5.3,1.4,6.8,4.6,6.4,7.2c-0.4,2.2-2.1,3.9-4.1,3.8c-0.6,0-1-0.5-0.9-1.1c0-0.6,0.5-1,1.1-0.9c0.9,0.1,1.8-0.9,1.9-2.1
			c0.3-1.7-0.9-3.9-4.9-5c-2.2-0.6-4.5,0-6,1.7c-1.3,1.4-1.8,3.3-1.3,5c0.8,2.6,3.8,4.5,8.4,5.5c14.8,3,34.8-15.1,35-15.2
			c0.4-0.4,1-0.3,1.4,0.1c0.4,0.4,0.3,1-0.1,1.4c-0.2,0.2-5.3,4.8-12.3,9C1215.6,4519.9,1208.7,4522.2,1202.9,4522.2z"/>
	</g>
	<g id="패스_421-2">
		<path class="st2" d="M1119.8,4678.9c-0.2,0-0.4,0-0.7-0.1c-1.3-0.4-2.1-1.7-1.7-3.1c6.5-23.3,30.8-40.1,70.2-48.5
			c29.3-6.3,57.2-5.8,57.4-5.8c1.4,0,2.5,1.2,2.5,2.5c0,1.4-1.1,2.5-2.5,2.5c-1.1,0-108.1-1.5-122.7,50.7
			C1121.9,4678.2,1120.9,4678.9,1119.8,4678.9z"/>
	</g>
	<g id="패스_422-2">
		<path class="st2" d="M1118.4,4639.9c-0.4,0-0.8-0.1-1.2-0.3c-1.2-0.7-1.7-2.2-1-3.4c10.6-19.3,35.5-32.6,74.2-39.4
			c28.5-5,54.3-4.4,54.6-4.4c1.4,0,2.5,1.2,2.4,2.6c0,1.4-1.1,2.5-2.6,2.4c-1,0-100.8-2-124.3,41.1
			C1120.1,4639.5,1119.3,4639.9,1118.4,4639.9z"/>
	</g>
	<g id="패스_423-2">
		<path class="st4" d="M1120.7,4611.3c-0.5,0-1-0.2-1.5-0.5c-1.1-0.8-1.4-2.4-0.6-3.5c12.4-17.4,37.5-29.2,74.6-35.3
			c27.4-4.5,51.5-3.9,51.7-3.9c1.4,0,2.5,1.2,2.4,2.6c0,1.4-1.1,2.5-2.6,2.4c-0.9,0-94.3-1.8-122.1,37.1
			C1122.2,4610.9,1121.5,4611.3,1120.7,4611.3z"/>
	</g>
</g>
</svg>
