<svg xmlns="http://www.w3.org/2000/svg" width="284" height="284"><g data-name="그룹 235"><g data-name="그룹 230" transform="translate(-310.001 -4417.001)"><circle data-name="타원 188" cx="142" cy="142" r="142" transform="translate(310.001 4417.001)" fill="#fff"/><path data-name="패스 352" d="M310.947 4574.36h281.828" fill="none" stroke="#707070"/><g data-name="그룹 628"><path data-name="패스 400" d="M421.637 4573.446l-23.215 23.4v51.326h-8.311v-51.326l-23.069-23.4" fill="#62a1a8"/><path data-name="패스 401" d="M441.541 4556.453l-15.842 9.669h-63.16l-16.047-9.669-3.76 5.763 18.735 11.863h64.395l19.96-12.313z" fill="#6fb1b9"/></g></g><g data-name="그룹 234"><g data-name="그룹 231"><path data-name="패스 449" d="M164.366 100.153c-1.685-1.113-3.8-3.58-5.8-6.969-1.972-3.34-2.951-6.867-4.085-9.7-1.135 2.833-2.114 6.36-4.085 9.7-2 3.388-4.114 5.856-5.8 6.969a22.412 22.412 0 015.757 6.942c2.013 3.41 3.024 7.015 4.126 9.877 1.1-2.862 2.113-6.467 4.126-9.877a22.416 22.416 0 015.761-6.942z" fill="#6fb1b9"/></g><g data-name="그룹 232"><path data-name="패스 449" d="M241.42 133.107c-2.717-1.794-6.125-5.773-9.35-11.237-3.18-5.386-4.758-11.073-6.588-15.641-1.83 4.568-3.408 10.255-6.588 15.641-3.226 5.464-6.634 9.443-9.35 11.237 2.705 1.815 6.084 5.774 9.283 11.194 3.247 5.5 4.877 11.312 6.654 15.927 1.777-4.616 3.407-10.428 6.654-15.927 3.201-5.42 6.58-9.38 9.285-11.194z" fill="#6fb1b9"/></g><g data-name="그룹 233"><path data-name="패스 449" d="M180.811 200.18a14.245 14.245 0 01-3.714-4.464 41.091 41.091 0 01-2.617-6.214 41.105 41.105 0 01-2.617 6.214 14.243 14.243 0 01-3.714 4.464 14.354 14.354 0 013.688 4.447 38.81 38.81 0 012.643 6.327 38.8 38.8 0 012.643-6.327 14.359 14.359 0 013.688-4.447z" fill="#6fb1b9"/></g></g></g></svg>