<svg xmlns="http://www.w3.org/2000/svg" width="284" height="284" viewBox="0 0 284 284"><g transform="translate(-1059 -5402)"><g transform="translate(748.999 984.999)"><circle cx="142" cy="142" r="142" transform="translate(310.001 4417.001)" fill="#fff"/><path d="M200.3,12271.383H482.128" transform="translate(110.647 -7697.023)" fill="none" stroke="#707070" stroke-width="1"/><g transform="translate(333.276 4559.37)"><path d="M473.658,449l-27.74,27.967v44.794h-4.642V476.967L413.705,449" transform="translate(-388.243 -433.682)" fill="#6fb1b9" stroke="#000" stroke-miterlimit="10" stroke-width="2"/><path d="M412.851,383,394.98,393.908H323.728L305.625,383,304,386.946l18.8,11.373h72.645l19.264-11.373Z" transform="translate(-304 -383)" fill="#6fb1b9" stroke="#000" stroke-miterlimit="10" stroke-width="2"/></g></g><g transform="translate(-320.041 4167.215)"><path d="M1543.407,1334.938c-1.685-1.113-3.8-3.58-5.8-6.969-1.972-3.34-2.951-6.867-4.085-9.7-1.135,2.833-2.114,6.36-4.085,9.7-2,3.388-4.114,5.856-5.8,6.969a22.412,22.412,0,0,1,5.757,6.942c2.013,3.41,3.024,7.015,4.126,9.877,1.1-2.862,2.113-6.467,4.126-9.877A22.416,22.416,0,0,1,1543.407,1334.938Z" fill="#6fb1b9"/></g><g transform="translate(-255.095 4189.958)"><path d="M1555.515,1345.149c-2.717-1.794-6.125-5.773-9.35-11.237-3.18-5.386-4.758-11.073-6.588-15.641-1.83,4.568-3.408,10.255-6.588,15.641-3.226,5.464-6.634,9.443-9.35,11.237,2.705,1.815,6.084,5.774,9.283,11.194,3.247,5.5,4.877,11.312,6.654,15.927,1.777-4.616,3.407-10.428,6.654-15.927C1549.431,1350.923,1552.81,1346.963,1555.515,1345.149Z" transform="translate(0 0)" fill="#6fb1b9"/></g><g transform="translate(-296.489 4273.233)"><path d="M1536.3,1328.947a14.245,14.245,0,0,1-3.714-4.464,41.091,41.091,0,0,1-2.617-6.214,41.105,41.105,0,0,1-2.617,6.214,14.243,14.243,0,0,1-3.714,4.464,14.354,14.354,0,0,1,3.688,4.447,38.81,38.81,0,0,1,2.643,6.327,38.8,38.8,0,0,1,2.643-6.327A14.359,14.359,0,0,1,1536.3,1328.947Z" fill="#6fb1b9"/></g></g></svg>