<svg xmlns="http://www.w3.org/2000/svg" width="284.263" height="284.263" viewBox="0 0 284.263 284.263"><g transform="translate(-1056.049 -6390.938)"><path d="M142.132,0A142.132,142.132,0,1,1,0,142.132,142.132,142.132,0,0,1,142.132,0Z" transform="translate(1056.049 6390.938)" fill="#fff"/><g transform="translate(1159.755 6564.249)"><path d="M-12329.492,3856.86l-15.846,2.566" transform="translate(12345.338 -3830)" fill="none" stroke="#313131" stroke-linecap="round" stroke-width="2"/><path d="M-12329.492,3856.86l-15.846,2.566" transform="translate(12345.338 -3843.43)" fill="none" stroke="#313131" stroke-linecap="round" stroke-width="2"/><path d="M-12329.492,3856.86l-15.846,2.566" transform="translate(12345.338 -3856.86)" fill="none" stroke="#313131" stroke-linecap="round" stroke-width="2"/><g transform="translate(83.936)"><path d="M-12345.338,3856.86l15.846,2.566" transform="translate(12345.338 -3830)" fill="none" stroke="#313131" stroke-linecap="round" stroke-width="2"/><path d="M-12345.338,3856.86l15.846,2.566" transform="translate(12345.338 -3843.43)" fill="none" stroke="#313131" stroke-linecap="round" stroke-width="2"/><path d="M-12345.338,3856.86l15.846,2.566" transform="translate(12345.338 -3856.86)" fill="none" stroke="#313131" stroke-linecap="round" stroke-width="2"/></g></g><path d="M200.3,12271.383h85.039" transform="translate(857.332 -5741.761)" fill="none" stroke="#707070" stroke-width="1"/><path d="M750.643,264.083V386.324" transform="translate(434.35 6132.617)" fill="none" stroke="#313131" stroke-linecap="round" stroke-linejoin="round" stroke-width="2"/><path d="M863.5,263.592V406.871" transform="translate(369.513 6136.648)" fill="none" stroke="#313131" stroke-linecap="round" stroke-linejoin="round" stroke-width="2"/><path d="M1558.857,12313.432l1.97,43.019-3.507,38.679" transform="translate(-369.509 -5724.67)" fill="none" stroke="#313131" stroke-linecap="round" stroke-width="2"/><path d="M1571.194,12313.432l1.663,57.52,4.825,24.686" transform="translate(-370.224 -5724.67)" fill="none" stroke="#313131" stroke-linecap="round" stroke-width="2"/><path d="M1572.356,12353.055l23.254,17.54" transform="translate(-370.278 -5726.526)" fill="none" stroke="#313131" stroke-linecap="round" stroke-width="2"/><path d="M1602.882,12305.212l8.92,61.432c.016,0-4.069,23.571-4.069,23.571" transform="translate(-371.709 -5724.286)" fill="none" stroke="#313131" stroke-linecap="round" stroke-width="2"/><path d="M1609.18,12380.022l-20.752,13.708" transform="translate(-371.031 -5727.791)" fill="none" stroke="#313131" stroke-linecap="round" stroke-width="2"/><path d="M1608.92,12347.607l19.036,21.661" transform="translate(-371.992 -5727.271)" fill="none" stroke="#313131" stroke-linecap="round" stroke-width="2"/><g transform="translate(1170 6518)" fill="#69baaf" stroke="#000" stroke-width="3"><rect width="38" height="86" stroke="none"/><rect x="1.5" y="1.5" width="35" height="83" fill="none"/></g><g transform="translate(1210 6518)" fill="#69baaf" stroke="#000" stroke-width="3"><rect width="39" height="86" stroke="none"/><rect x="1.5" y="1.5" width="36" height="83" fill="none"/></g><path d="M200.3,12271.383h56.917" transform="translate(1081.788 -5741.761)" fill="none" stroke="#707070" stroke-width="1"/><g transform="translate(1218 6562)" fill="#fff" stroke="#000" stroke-width="1"><circle cx="3.5" cy="3.5" r="3.5" stroke="none"/><circle cx="3.5" cy="3.5" r="3" fill="none"/></g><g transform="translate(1234 6562)" fill="#fff" stroke="#000" stroke-width="1"><circle cx="3.5" cy="3.5" r="3.5" stroke="none"/><circle cx="3.5" cy="3.5" r="3" fill="none"/></g><g transform="translate(1218 6575)" fill="#fff" stroke="#000" stroke-width="1"><circle cx="3.5" cy="3.5" r="3.5" stroke="none"/><circle cx="3.5" cy="3.5" r="3" fill="none"/></g><g transform="translate(1234 6575)" fill="#fff" stroke="#000" stroke-width="1"><circle cx="3.5" cy="3.5" r="3.5" stroke="none"/><circle cx="3.5" cy="3.5" r="3" fill="none"/></g><g transform="translate(1218 6588)" fill="#fff" stroke="#000" stroke-width="1"><circle cx="3.5" cy="3.5" r="3.5" stroke="none"/><circle cx="3.5" cy="3.5" r="3" fill="none"/></g><g transform="translate(1234 6588)" fill="#fff" stroke="#000" stroke-width="1"><circle cx="3.5" cy="3.5" r="3.5" stroke="none"/><circle cx="3.5" cy="3.5" r="3" fill="none"/></g><g transform="translate(1193 6562)" fill="#fff" stroke="#000" stroke-width="1"><circle cx="3.5" cy="3.5" r="3.5" stroke="none"/><circle cx="3.5" cy="3.5" r="3" fill="none"/></g><g transform="translate(1178 6562)" fill="#fff" stroke="#000" stroke-width="1"><circle cx="3.5" cy="3.5" r="3.5" stroke="none"/><circle cx="3.5" cy="3.5" r="3" fill="none"/></g><g transform="translate(1193 6575)" fill="#fff" stroke="#000" stroke-width="1"><circle cx="3.5" cy="3.5" r="3.5" stroke="none"/><circle cx="3.5" cy="3.5" r="3" fill="none"/></g><g transform="translate(1178 6575)" fill="#fff" stroke="#000" stroke-width="1"><circle cx="3.5" cy="3.5" r="3.5" stroke="none"/><circle cx="3.5" cy="3.5" r="3" fill="none"/></g><g transform="translate(1193 6588)" fill="#fff" stroke="#000" stroke-width="1"><circle cx="3.5" cy="3.5" r="3.5" stroke="none"/><circle cx="3.5" cy="3.5" r="3" fill="none"/></g><g transform="translate(1178 6588)" fill="#fff" stroke="#000" stroke-width="1"><circle cx="3.5" cy="3.5" r="3.5" stroke="none"/><circle cx="3.5" cy="3.5" r="3" fill="none"/></g></g></svg>