<svg xmlns="http://www.w3.org/2000/svg" width="284" height="285" viewBox="0 0 284 285"><g transform="translate(-578 -5942)"><ellipse cx="142" cy="142.5" rx="142" ry="142.5" transform="translate(578 5942)" fill="#fff"/><path d="M200.3,12271.383h22.529" transform="translate(380.899 -6191.1)" fill="none" stroke="#707070" stroke-width="1"/><path d="M200.3,12271.383h56.358" transform="translate(602.255 -6191.1)" fill="none" stroke="#707070" stroke-width="1"/><g transform="translate(561.403 5927.951)"><path d="M743.578,283.394l-.019,121.872L639.516,464.2l-11.531,2.182" transform="translate(-599.5 -263.615)" fill="none" stroke="#313131" stroke-linecap="round" stroke-linejoin="round" stroke-width="2"/><path d="M748.543,470.5l-56.751,86.581-18.445,6.333" transform="translate(-611.759 -308.477)" fill="none" stroke="#313131" stroke-linecap="round" stroke-linejoin="round" stroke-width="2"/><path d="M817.138,487.5,813.5,550.8l6.863,57.228" transform="translate(-657.8 -313.108)" fill="none" stroke="#313131" stroke-linecap="round" stroke-linejoin="round" stroke-width="2"/><line x1="18.567" y2="16.621" transform="translate(138.966 205.79)" stroke-width="2" stroke="#313131" stroke-linecap="round" stroke-linejoin="round" fill="none"/><line x2="27.755" y2="12.233" transform="translate(157.047 248.739)" stroke-width="2" stroke="#313131" stroke-linecap="round" stroke-linejoin="round" fill="none"/><line x1="38.622" y2="6.697" transform="translate(72.029 201.891)" stroke-width="2" stroke="#313131" stroke-linecap="round" stroke-linejoin="round" fill="none"/><line x1="0.5" y2="20.5" transform="translate(79.097 249.049)" stroke-width="2" stroke="#313131" stroke-linecap="round" stroke-linejoin="round" fill="none"/><path d="M680.983,485.518l-38.2-22.018L611.5,474.414" transform="translate(-584.543 -316.872)" fill="none" stroke="#313131" stroke-linecap="round" stroke-linejoin="round" stroke-width="2"/><line x1="3.354" y2="31.171" transform="translate(48.02 194.151)" stroke-width="2" stroke="#313131" stroke-linecap="round" stroke-linejoin="round" fill="none"/><path d="M863.109,286.053l.391,143.769,26.893-18.511,36.218,6.867,39.078,27.3" transform="translate(-671.422 -263.592)" fill="none" stroke="#313131" stroke-linecap="round" stroke-linejoin="round" stroke-width="2"/><path d="M856.261,478.075,887.3,519.248l45.379,35.7" transform="translate(-668.297 -309.206)" fill="none" stroke="#313131" stroke-linecap="round" stroke-linejoin="round" stroke-width="2"/><path d="M874.677,503.6" transform="translate(-674.466 -317.494)" fill="none" stroke="#313131" stroke-linecap="round" stroke-linejoin="round" stroke-width="2"/><line x2="37" y2="6" transform="translate(201.597 186.049)" stroke-width="2" stroke="#313131" stroke-linecap="round" stroke-linejoin="round" fill="none"/><path d="M898.321,536.5l4.365,41.472-10.186,13.1" transform="translate(-679.322 -326.457)" fill="none" stroke="#313131" stroke-linecap="round" stroke-linejoin="round" stroke-width="2"/><line y1="14.188" x2="10.914" transform="translate(218.271 174.392)" stroke-width="2" stroke="#313131" stroke-linecap="round" stroke-linejoin="round" fill="none"/></g><g transform="matrix(0.985, 0.174, -0.174, 0.985, 798.362, 6016.227)"><g transform="translate(0 0)"><path d="M18.7,16.124,0,23.7V72.786l6.865,8.46,24.252-8.46L51.411,23.7,29.523,17.3l1.6-15.726L20.67,0Z" transform="translate(0 56.088)" fill="#69baaf" stroke="#000" stroke-linecap="round" stroke-linejoin="round" stroke-width="3"/><path d="M0,59.174l17.43,2.49L24.047,2.9,7.108,0Z" transform="translate(17.07 0)" fill="#69baaf" stroke="#000" stroke-linecap="round" stroke-linejoin="round" stroke-width="3"/></g><path d="M6.516,0,0,45.34" transform="translate(38.901 80.978) rotate(14)" fill="none" stroke="#000" stroke-linecap="round" stroke-width="3"/></g></g></svg>