<svg xmlns="http://www.w3.org/2000/svg" width="284" height="284"><g data-name="그룹 228" transform="translate(-1006.999 -4417)"><circle data-name="타원 223" cx="142" cy="142" r="142" transform="translate(1006.999 4417)" fill="#fff"/><path data-name="패스 415" d="M1263.83 4574.564h26.443" fill="none" stroke="#707070"/><path data-name="패스 418" d="M1007.73 4574.564h59.62" fill="none" stroke="#707070"/><path data-name="패스 412" d="M1191.561 4482.367s-20.41 18.654-35.846 15.477-8.987-16.219-.6-14.043 5.856 9.234 2.615 9.02" fill="none" stroke="#313131" stroke-linecap="round" stroke-width="2"/><path data-name="패스 411" d="M1234.449 4505.784s-20.41 18.654-35.846 15.477-8.987-16.219-.6-14.043 5.856 9.234 2.615 9.02" fill="none" stroke="#313131" stroke-linecap="round" stroke-width="2"/><path data-name="패스 421" d="M1244.443 4624.251s-109.909-2.119-125.143 52.549" fill="none" stroke="#6fb1b9" stroke-linecap="round" stroke-width="5"/><path data-name="패스 422" d="M1244.44 4595.406s-102.028-2.512-126.554 42.449" fill="none" stroke="#6fb1b9" stroke-linecap="round" stroke-width="5"/><path data-name="패스 423" d="M1244.437 4571.048s-95.276-2.34-124.238 38.168" fill="none" stroke="#8dc794" stroke-linecap="round" stroke-width="5"/><g data-name="그룹 626"><path data-name="패스 400" d="M1104.636 4573.445l-23.215 23.4v51.326h-8.311v-51.326l-23.069-23.4" fill="#62a1a8"/><path data-name="패스 401" d="M1124.54 4556.452l-15.842 9.669h-63.16l-16.047-9.669-3.76 5.763 18.735 11.863h64.395l19.96-12.313z" fill="#6fb1b9"/></g></g></svg>