<svg xmlns="http://www.w3.org/2000/svg" width="284" height="284"><g data-name="그룹 229" transform="translate(-1355.999 -4417)"><path data-name="패스 440" d="M1497.999 4417a142 142 0 11-142 142 142 142 0 01142-142z" fill="#fff"/><path data-name="패스 426" d="M1465.702 4536.538l172.716-.15" fill="none" stroke="#707070"/><path data-name="패스 430" d="M1357.567 4536.549h58.783" fill="none" stroke="#707070"/><path data-name="패스 424" d="M1540.561 4441.054s-20.41 18.654-35.846 15.477-8.987-16.219-.6-14.043 5.856 9.234 2.615 9.02" fill="none" stroke="#313131" stroke-linecap="round" stroke-width="2"/><path data-name="패스 425" d="M1583.449 4467.501s-20.41 18.654-35.846 15.477-8.987-16.219-.6-14.043 5.856 9.234 2.615 9.02" fill="none" stroke="#313131" stroke-linecap="round" stroke-width="2"/><path data-name="패스 431" d="M1510.503 4559.001s-2.977 79.146 26.44 89.115" fill="none" stroke="#6fb1b9" stroke-linecap="round" stroke-width="5"/><path data-name="패스 432" d="M1486.733 4559.001s-2.977 79.146 26.44 89.115" fill="none" stroke="#6fb1b9" stroke-linecap="round" stroke-width="5"/><path data-name="패스 433" d="M1466.359 4559.001s-2.977 79.146 26.44 89.115" fill="none" stroke="#6fb1b9" stroke-linecap="round" stroke-width="5"/><circle data-name="타원 232" cx="7.422" cy="7.422" transform="translate(1435.009 4647.299)" fill="#8dc794" r="7.422"/><g data-name="그룹 219" transform="translate(4 -4)" fill="#8dc794"><circle data-name="타원 233" cx="7.422" cy="7.422" transform="translate(1471.098 4666.144)" r="7.422"/><circle data-name="타원 231" cx="7.422" cy="7.422" transform="translate(1473.666 4674.137)" r="7.422"/></g><g data-name="그룹 218" transform="translate(-5 1)" fill="#8dc794"><circle data-name="타원 226" cx="7.422" cy="7.422" transform="translate(1544.287 4616.507)" r="7.422"/><circle data-name="타원 227" cx="7.422" cy="7.422" transform="translate(1553.275 4608.803)" r="7.422"/><circle data-name="타원 228" cx="7.422" cy="7.422" transform="translate(1555.843 4617.792)" r="7.422"/><circle data-name="타원 229" cx="7.422" cy="7.422" transform="translate(1564.832 4615.224)" r="7.422"/></g><circle data-name="타원 230" cx="3.997" cy="3.997" transform="translate(1439.473 4611.041)" fill="#8dc794" r="3.997"/><g data-name="그룹 627"><path data-name="패스 400" d="M1455.636 4535.445l-23.215 23.4v51.326h-8.311v-51.326l-23.069-23.4" fill="#62a1a8"/><path data-name="패스 401" d="M1475.54 4518.452l-15.842 9.669h-63.16l-16.047-9.669-3.76 5.763 18.735 11.863h64.395l19.96-12.313z" fill="#6fb1b9"/></g></g></svg>