<?xml version="1.0" encoding="utf-8"?>
<!-- Generator: Adobe Illustrator 24.0.2, SVG Export Plug-In . SVG Version: 6.00 Build 0)  -->
<svg version="1.1" id="레이어_1" xmlns="http://www.w3.org/2000/svg" xmlns:xlink="http://www.w3.org/1999/xlink" x="0px"
	 y="0px" viewBox="0 0 284 284" style="enable-background:new 0 0 284 284;" xml:space="preserve">
<style type="text/css">
	.st0{fill:#FFFFFF;}
	.st1{fill:#707070;}
	.st2{fill:#313131;}
	.st3{fill:#EDEDED;}
	.st4{fill:none;stroke:#EDEDED;stroke-width:4;stroke-linecap:round;stroke-linejoin:round;}
	.st5{fill:#69BAAF;}
</style>
<g id="그룹_247" transform="translate(-1057.168 -5941.599)">
	<g id="패스_386">
		<path class="st0" d="M1199.2,5941.6c78.4,0,142,63.6,142,142s-63.6,142-142,142s-142-63.6-142-142c-0.2-78.3,63.2-141.8,141.4-142
			C1198.8,5941.6,1199,5941.6,1199.2,5941.6z"/>
	</g>
	<g id="패스_356">
		<rect x="1058.8" y="6079.7" class="st1" width="24" height="1"/>
	</g>
	<g id="패스_343">
		<path class="st2" d="M1184.4,6071.5c-1.1,0-2-0.9-2-2v-122.7c0-1.1,0.9-2,2-2s2,0.9,2,2v122.7
			C1186.4,6070.6,1185.5,6071.5,1184.4,6071.5z"/>
	</g>
	<g id="패스_347">
		<path class="st2" d="M1232.4,6096c-1.1,0-2-0.9-2-2v-142.9c0-1.1,0.9-2,2-2s2,0.9,2,2V6094C1234.4,6095.1,1233.5,6096,1232.4,6096
			z"/>
	</g>
	<g id="그룹_155" transform="translate(1040.487 6069.602)">
		<g id="패스_357">
			<rect x="240.9" y="10.1" class="st1" width="57.3" height="1"/>
		</g>
		<g id="패스_360">
			<path class="st3" d="M28.5,63.2c-0.9,0-1.8-0.6-2-1.6c-0.2-1.1,0.5-2.1,1.5-2.4l11.2-2.4L143-1.9c1-0.5,2.2-0.2,2.7,0.8
				c0.5,1,0.2,2.2-0.8,2.7L41,60.5c-0.2,0.1-0.4,0.2-0.6,0.2l-11.5,2.5C28.8,63.2,28.7,63.2,28.5,63.2z"/>
		</g>
		<g id="패스_344">
			<path class="st3" d="M63.1,114.3c-0.8,0-1.6-0.5-1.9-1.4c-0.3-1,0.2-2.2,1.3-2.5l16.2-5.4L135,19.1c0.6-0.9,1.8-1.2,2.8-0.6
				c0.9,0.6,1.2,1.8,0.6,2.8l-56.7,86.5c-0.2,0.4-0.6,0.7-1,0.8l-16.8,5.6C63.6,114.3,63.4,114.3,63.1,114.3z"/>
		</g>
		<g id="패스_345">
			<path class="st3" d="M162.5,153.2c-1,0-1.9-0.7-2-1.8l-6.9-55.4c0-0.1,0-0.2,0-0.4l3.6-63.2c0.1-1.1,1-1.9,2.1-1.9
				c1.1,0.1,1.9,1,1.9,2.1l-3.6,63.1l6.9,55.2c0.1,1.1-0.6,2.1-1.7,2.2C162.7,153.2,162.6,153.2,162.5,153.2z"/>
		</g>
		<g id="선_30">
			<path class="st3" d="M138.9,82.6c-0.5,0-1.1-0.2-1.5-0.7c-0.7-0.8-0.7-2.1,0.2-2.8l18.5-16.6c0.8-0.7,2.1-0.7,2.8,0.2
				c0.7,0.8,0.7,2.1-0.2,2.8l-18.5,16.6C139.8,82.4,139.3,82.6,138.9,82.6z"/>
		</g>
		<g id="선_31">
			<path class="st3" d="M184.6,121.1c-0.3,0-0.5-0.1-0.8-0.2l-27.7-12.2c-1-0.4-1.5-1.6-1-2.6c0.4-1,1.6-1.5,2.6-1l27.7,12.2
				c1,0.4,1.5,1.6,1,2.6C186.1,120.6,185.4,121.1,184.6,121.1z"/>
		</g>
		<g id="선_32">
			<path class="st3" d="M72,68.8c-1,0-1.8-0.7-2-1.7c-0.2-1.1,0.5-2.1,1.6-2.3l38.6-6.7c1.1-0.2,2.1,0.5,2.3,1.6
				c0.2,1.1-0.5,2.1-1.6,2.3l-38.6,6.7C72.2,68.7,72.1,68.8,72,68.8z"/>
		</g>
		<g id="패스_490">
			<path class="st3" d="M76.3,126.3c-0.1,0-0.2,0-0.4,0c-1.1-0.2-1.8-1.2-1.6-2.3l3.2-17.1c0.2-1.1,1.2-1.8,2.3-1.6
				c1.1,0.2,1.8,1.2,1.6,2.3l-3.2,17.1C78.1,125.6,77.3,126.3,76.3,126.3z"/>
		</g>
		<g id="선_34">
			<path class="st3" d="M48,85.5c-0.1,0-0.1,0-0.2,0c-1.1-0.1-1.9-1.1-1.8-2.2l3.4-31.1c0.1-1.1,1.1-1.9,2.2-1.8
				c1.1,0.1,1.9,1.1,1.8,2.2L50,83.7C49.9,84.7,49,85.5,48,85.5z"/>
		</g>
		<g id="패스_361">
			<path class="st3" d="M293.9,41.2c-0.4,0-0.8-0.1-1.1-0.3l-38.6-26.2l-35-6.6l-26.2,18c-0.9,0.6-2.2,0.4-2.8-0.5
				c-0.6-0.9-0.4-2.2,0.5-2.8l26.9-18.5c0.4-0.3,1-0.4,1.5-0.3l36.2,6.9c0.3,0.1,0.5,0.2,0.7,0.3l39,26.4c0.9,0.6,1.2,1.9,0.5,2.8
				C295.2,40.9,294.6,41.2,293.9,41.2z"/>
		</g>
		<g id="패스_346">
			<path class="st3" d="M96.4,28.9c-0.3,0-0.7-0.1-1-0.3L58,7L27.6,17.6c-1,0.4-2.2-0.2-2.5-1.2c-0.4-1,0.2-2.2,1.2-2.5L57.5,3
				c0.5-0.2,1.2-0.1,1.7,0.2l38.2,22c1,0.6,1.3,1.8,0.7,2.7C97.7,28.5,97.1,28.9,96.4,28.9z"/>
		</g>
		<g id="패스_348">
			<path class="st3" d="M264.6,104.2c-0.4,0-0.8-0.1-1.2-0.4l-45.8-34c-0.2-0.1-0.3-0.2-0.4-0.4l-31-41.1c-0.7-0.9-0.5-2.1,0.4-2.8
				c0.9-0.7,2.1-0.5,2.8,0.4l30.8,40.9l45.6,33.9c0.9,0.7,1.1,1.9,0.4,2.8C265.9,104,265.3,104.2,264.6,104.2z"/>
		</g>
		<g id="패스_349">
			<path class="st4" d="M200,44.3"/>
		</g>
		<g id="선_36">
			<path class="st3" d="M237.3,52.2c-0.1,0-0.2,0-0.3,0l-37-6c-1.1-0.2-1.8-1.2-1.7-2.3c0.2-1.1,1.2-1.8,2.3-1.7l37,6
				c1.1,0.2,1.8,1.2,1.7,2.3C239.1,51.5,238.3,52.2,237.3,52.2z"/>
		</g>
		<g id="패스_350">
			<path class="st3" d="M213,124.7c-0.4,0-0.9-0.1-1.2-0.4c-0.9-0.7-1-1.9-0.4-2.8l9.7-12.5l-4.3-40.6c-0.1-1.1,0.7-2.1,1.8-2.2
				c1.1-0.1,2.1,0.7,2.2,1.8l4.4,41.4c0.1,0.5-0.1,1-0.4,1.4L214.6,124C214.2,124.5,213.6,124.7,213,124.7z"/>
		</g>
		<g id="선_37">
			<path class="st3" d="M218.1,48.8c-0.4,0-0.9-0.1-1.2-0.4c-0.9-0.7-1-1.9-0.4-2.8l10.9-14.2c0.7-0.9,1.9-1,2.8-0.4
				c0.9,0.7,1,1.9,0.4,2.8L219.7,48C219.3,48.5,218.7,48.8,218.1,48.8z"/>
		</g>
	</g>
	<g id="그룹_154" transform="translate(1256.924 6146.974) rotate(-74)">
		<g id="패스_359">
			<path class="st5" d="M0.1,3.6l86.8,0l0,11.1l-13.3,0l0,28.5l-7.5-3.7l-7.7,3.7l-6.2-3.7l-4.9,3.7l-5.7-3.7l-5.9,3.7l-5.5-3.7
				l-6.9,3.7l-5-3.7l-6.5,3.7l-5.6-3.7l-6,3.7L0.1,3.6z"/>
			<path d="M-1.3,43.5c0-0.1-0.1-0.3-0.1-0.4l0-39.5c0-0.4,0.2-0.8,0.4-1.1c0.3-0.3,0.7-0.4,1.1-0.4l86.8,0c0.4,0,0.8,0.2,1.1,0.4
				c0.3,0.3,0.4,0.7,0.4,1.1l0,11.1c0,0.8-0.7,1.5-1.5,1.5l-11.8,0l0,27c0,0.5-0.3,1-0.7,1.3c-0.4,0.3-1,0.3-1.5,0.1l-6.8-3.3
				l-7.1,3.3c-0.5,0.2-1,0.2-1.4-0.1l-5.3-3.2l-4.1,3.1c-0.5,0.4-1.2,0.4-1.7,0.1l-4.9-3.1l-5.1,3.2c-0.5,0.3-1.1,0.3-1.6,0
				l-4.8-3.2L24,44.4c-0.5,0.3-1.1,0.2-1.6-0.1l-4.3-3.1l-5.7,3.2c-0.5,0.3-1.1,0.3-1.6-0.1l-4.8-3.1l-5.2,3.2c-0.5,0.3-1,0.3-1.5,0
				C-1,44.2-1.2,43.9-1.3,43.5z M1.6,5.1l0,35.4l3.8-2.3c0.5-0.3,1.1-0.3,1.6,0l4.8,3.2l5.7-3.2c0.5-0.3,1.1-0.2,1.6,0.1l4.3,3.1
				l6-3.2c0.5-0.3,1.1-0.2,1.5,0.1l4.7,3.1l5.1-3.1c0.5-0.3,1.1-0.3,1.6,0l4.8,3.1l4.1-3c0.5-0.4,1.1-0.4,1.7-0.1l5.5,3.3l7-3.3
				c0.4-0.2,0.9-0.2,1.3,0l5.3,2.6l0-26.1c0-0.8,0.7-1.5,1.5-1.5l11.8,0l0-8.1L1.6,5.1z"/>
		</g>
		<g id="패스_358">
			<path class="st5" d="M0.1,3.6l86.8,0l0,11.1l-13.3,0l0,21.5l-7.5-3.7l-7.7,3.7l-6.2-3.7l-4.9,3.7l-5.7-3.7l-5.9,3.7l-5.5-3.7
				l-6.9,3.7l-5-3.7l-6.5,3.7l-5.6-3.7l-6,3.7L0.1,3.6z"/>
			<path d="M-1.3,36.6c0-0.1-0.1-0.3-0.1-0.4l0-32.6c0-0.8,0.7-1.5,1.5-1.5l86.8,0c0.4,0,0.8,0.2,1.1,0.4c0.3,0.3,0.4,0.7,0.4,1.1
				l0,11.1c0,0.8-0.7,1.5-1.5,1.5l-11.8,0l0,20c0,0.5-0.3,1-0.7,1.3c-0.4,0.3-1,0.3-1.5,0.1l-6.8-3.3l-7.1,3.3
				c-0.5,0.2-1,0.2-1.4-0.1l-5.3-3.2l-4.1,3.1c-0.5,0.4-1.2,0.4-1.7,0.1l-4.9-3.1l-5.1,3.2c-0.5,0.3-1.1,0.3-1.6,0l-4.8-3.2L24,37.5
				c-0.5,0.3-1.1,0.2-1.6-0.1l-4.3-3.1l-5.7,3.2c-0.5,0.3-1.1,0.3-1.6-0.1l-4.8-3.1l-5.2,3.2c-0.5,0.3-1,0.3-1.5,0
				C-1,37.3-1.2,37-1.3,36.6z M1.6,5.1l0,28.4l3.8-2.3C5.9,31,6.5,31,7,31.3l4.8,3.2l5.7-3.2c0.5-0.3,1.1-0.2,1.6,0.1l4.3,3.1l6-3.2
				C30,31,30.6,31,31,31.3l4.7,3.1l5.1-3.2c0.5-0.3,1.1-0.3,1.6,0l4.8,3.1l4.1-3c0.5-0.4,1.1-0.4,1.7-0.1l5.5,3.3l7-3.3
				c0.4-0.2,0.9-0.2,1.3,0l5.3,2.6l0-19.1c0-0.8,0.7-1.5,1.5-1.5l11.8,0l0-8.1L1.6,5.1z"/>
		</g>
		<g id="사각형_51" transform="translate(79.267 0)">
			<g>
				
					<rect x="0.1" y="-0.2" transform="matrix(-1 2.105099e-06 -2.105099e-06 -1 52.0376 19.1312)" class="st5" width="51.9" height="19.6"/>
			</g>
			<g>
				<path d="M0.1,18.3c0-0.1-0.1-0.3-0.1-0.4l0-16.6c0-0.8,0.7-1.5,1.5-1.5l48.9,0c0.4,0,0.8,0.2,1.1,0.4C51.8,0.5,52,0.9,52,1.3
					l0,16.6c0,0.8-0.7,1.5-1.5,1.5l-48.9,0c-0.4,0-0.8-0.2-1.1-0.4C0.3,18.7,0.2,18.5,0.1,18.3z M3.1,2.8l0,13.6l45.9,0l0-13.6
					L3.1,2.8z"/>
			</g>
		</g>
	</g>
</g>
</svg>
