<svg xmlns="http://www.w3.org/2000/svg" width="284.263" height="284.263" viewBox="0 0 284.263 284.263"><g transform="translate(-576.795 -6390.938)"><path d="M142.132,0A142.132,142.132,0,1,1,0,142.132,142.132,142.132,0,0,1,142.132,0Z" transform="translate(576.795 6390.938)" fill="#fff"/><path d="M200.3,12271.383h83.788" transform="translate(379.329 -5741.761)" fill="none" stroke="#707070" stroke-width="1"/><path d="M750.643,264.083v122.5" transform="translate(-44.904 6132.356)" fill="none" stroke="#313131" stroke-linecap="round" stroke-linejoin="round" stroke-width="2"/><path d="M863.5,263.592V407.765" transform="translate(-109.74 6135.754)" fill="none" stroke="#313131" stroke-linecap="round" stroke-linejoin="round" stroke-width="2"/><path d="M1558.857,12313.432l1.97,43.019-3.706,39.239" transform="translate(-848.763 -5724.67)" fill="none" stroke="#313131" stroke-linecap="round" stroke-width="2"/><path d="M1571.194,12313.432l1.663,57.52,4.777,25.508" transform="translate(-849.477 -5724.67)" fill="none" stroke="#313131" stroke-linecap="round" stroke-width="2"/><path d="M1572.356,12353.055l23.254,17.54" transform="translate(-849.532 -5726.526)" fill="none" stroke="#313131" stroke-linecap="round" stroke-width="2"/><path d="M1602.882,12305.212l8.92,61.432-4.619,23.173" transform="translate(-850.963 -5724.286)" fill="none" stroke="#313131" stroke-linecap="round" stroke-width="2"/><path d="M1609.18,12380.022l-20.752,13.708" transform="translate(-850.285 -5727.791)" fill="none" stroke="#313131" stroke-linecap="round" stroke-width="2"/><path d="M1608.92,12347.607l19.036,21.661" transform="translate(-851.246 -5727.271)" fill="none" stroke="#313131" stroke-linecap="round" stroke-width="2"/><g transform="translate(691 6518)" fill="#69baaf" stroke="#000" stroke-width="3"><rect width="38" height="86" stroke="none"/><rect x="1.5" y="1.5" width="35" height="83" fill="none"/></g><g transform="translate(732 6518)" fill="#69baaf" stroke="#000" stroke-width="3"><rect width="38" height="86" stroke="none"/><rect x="1.5" y="1.5" width="35" height="83" fill="none"/></g><path d="M200.3,12271.383h57.191" transform="translate(602.534 -5741.761)" fill="none" stroke="#707070" stroke-width="1"/><g transform="translate(739 6561)" fill="#fff" stroke="#000" stroke-width="1"><circle cx="3.5" cy="3.5" r="3.5" stroke="none"/><circle cx="3.5" cy="3.5" r="3" fill="none"/></g><g transform="translate(755 6561)" fill="#fff" stroke="#000" stroke-width="1"><circle cx="3.5" cy="3.5" r="3.5" stroke="none"/><circle cx="3.5" cy="3.5" r="3" fill="none"/></g><g transform="translate(739 6574)" fill="#fff" stroke="#000" stroke-width="1"><circle cx="3.5" cy="3.5" r="3.5" stroke="none"/><circle cx="3.5" cy="3.5" r="3" fill="none"/></g><g transform="translate(755 6574)" fill="#fff" stroke="#000" stroke-width="1"><circle cx="3.5" cy="3.5" r="3.5" stroke="none"/><circle cx="3.5" cy="3.5" r="3" fill="none"/></g><g transform="translate(739 6587)" fill="#fff" stroke="#000" stroke-width="1"><circle cx="3.5" cy="3.5" r="3.5" stroke="none"/><circle cx="3.5" cy="3.5" r="3" fill="none"/></g><g transform="translate(755 6587)" fill="#fff" stroke="#000" stroke-width="1"><circle cx="3.5" cy="3.5" r="3.5" stroke="none"/><circle cx="3.5" cy="3.5" r="3" fill="none"/></g><g transform="translate(714 6561)" fill="#fff" stroke="#000" stroke-width="1"><circle cx="3.5" cy="3.5" r="3.5" stroke="none"/><circle cx="3.5" cy="3.5" r="3" fill="none"/></g><g transform="translate(699 6561)" fill="#fff" stroke="#000" stroke-width="1"><circle cx="3.5" cy="3.5" r="3.5" stroke="none"/><circle cx="3.5" cy="3.5" r="3" fill="none"/></g><g transform="translate(714 6574)" fill="#fff" stroke="#000" stroke-width="1"><circle cx="3.5" cy="3.5" r="3.5" stroke="none"/><circle cx="3.5" cy="3.5" r="3" fill="none"/></g><g transform="translate(699 6574)" fill="#fff" stroke="#000" stroke-width="1"><circle cx="3.5" cy="3.5" r="3.5" stroke="none"/><circle cx="3.5" cy="3.5" r="3" fill="none"/></g><g transform="translate(714 6587)" fill="#fff" stroke="#000" stroke-width="1"><circle cx="3.5" cy="3.5" r="3.5" stroke="none"/><circle cx="3.5" cy="3.5" r="3" fill="none"/></g><g transform="translate(699 6587)" fill="#fff" stroke="#000" stroke-width="1"><circle cx="3.5" cy="3.5" r="3.5" stroke="none"/><circle cx="3.5" cy="3.5" r="3" fill="none"/></g></g></svg>