<?xml version="1.0" encoding="utf-8"?>
<!-- Generator: Adobe Illustrator 24.0.2, SVG Export Plug-In . SVG Version: 6.00 Build 0)  -->
<svg version="1.1" id="레이어_1" xmlns="http://www.w3.org/2000/svg" xmlns:xlink="http://www.w3.org/1999/xlink" x="0px"
	 y="0px" viewBox="0 0 284 284" style="enable-background:new 0 0 284 284;" xml:space="preserve">
<style type="text/css">
	.st0{fill:#FFFFFF;}
	.st1{fill:#707070;}
	.st2{fill:#313131;}
	.st3{fill:none;stroke:#313131;stroke-width:4;stroke-linecap:round;stroke-linejoin:round;}
	.st4{fill:#69BAAF;}
</style>
<g id="그룹_250" transform="translate(-578 -5942)">
	<g id="타원_188_1_">
		<ellipse class="st0" cx="720" cy="6084" rx="142" ry="142"/>
	</g>
	<g id="패스_351">
		<rect x="581.2" y="6079.3" class="st1" width="22.5" height="1"/>
	</g>
	<g id="패스_352_1_">
		<rect x="802.6" y="6079.3" class="st1" width="56.4" height="1"/>
	</g>
	<g id="그룹_149" transform="translate(561.403 5927.951)">
		<g id="패스_343">
			<path class="st2" d="M28.5,204.1c-0.9,0-1.8-0.7-2-1.6c-0.2-1.1,0.5-2.1,1.6-2.3l11.2-2.1l102.7-58l0-120.3c0-1.1,0.9-2,2-2
				c0,0,0,0,0,0c1.1,0,2,0.9,2,2l0,121.4c0,0.7-0.4,1.4-1,1.7L41,201.7c-0.2,0.1-0.4,0.2-0.6,0.2l-11.5,2.2
				C28.7,204.1,28.6,204.1,28.5,204.1z"/>
		</g>
		<g id="패스_344">
			<path class="st2" d="M61.6,256.1c-0.8,0-1.6-0.5-1.9-1.3c-0.4-1,0.2-2.2,1.2-2.5l17.8-6.1l56.4-85.7c0.6-0.9,1.8-1.2,2.8-0.6
				c0.9,0.6,1.2,1.8,0.6,2.8l-56.8,86.3c-0.2,0.4-0.6,0.6-1,0.8L62.2,256C62,256.1,61.8,256.1,61.6,256.1z"/>
		</g>
		<g id="패스_345">
			<path class="st2" d="M162.6,295.9c-1,0-1.9-0.7-2-1.8l-6.9-57c0-0.1,0-0.2,0-0.4l3.6-63.1c0.1-1.1,1-1.9,2.1-1.9
				c1.1,0.1,1.9,1,1.9,2.1l-3.6,62.9l6.8,56.9c0.1,1.1-0.7,2.1-1.7,2.2C162.7,295.9,162.6,295.9,162.6,295.9z"/>
		</g>
		<g id="선_30">
			<path class="st2" d="M139,223.7c-0.5,0-1.1-0.2-1.5-0.7c-0.7-0.8-0.7-2.1,0.2-2.8l18.6-16.6c0.8-0.7,2.1-0.7,2.8,0.2
				c0.7,0.8,0.7,2.1-0.2,2.8l-18.6,16.6C139.9,223.5,139.4,223.7,139,223.7z"/>
		</g>
		<g id="선_31">
			<path class="st2" d="M184.8,262.1c-0.3,0-0.5-0.1-0.8-0.2l-27.8-12.2c-1-0.4-1.5-1.6-1-2.6c0.4-1,1.6-1.5,2.6-1l27.8,12.2
				c1,0.4,1.5,1.6,1,2.6C186.3,261.7,185.6,262.1,184.8,262.1z"/>
		</g>
		<g id="선_32">
			<path class="st2" d="M72,209.9c-1,0-1.8-0.7-2-1.7c-0.2-1.1,0.5-2.1,1.6-2.3l38.6-6.7c1.1-0.2,2.1,0.5,2.3,1.6
				c0.2,1.1-0.5,2.1-1.6,2.3l-38.6,6.7C72.3,209.9,72.1,209.9,72,209.9z"/>
		</g>
		<g id="선_33">
			<path class="st2" d="M79.1,270.6C79.1,270.6,79.1,270.6,79.1,270.6c-1.2,0-2-0.9-2-2l0.5-20.4c0-1.1,1-1.9,2-1.9c1.1,0,2,0.9,2,2
				l-0.5,20.4C81.1,269.8,80.2,270.6,79.1,270.6z"/>
		</g>
		<g id="패스_346">
			<path class="st2" d="M96.4,170.1c-0.3,0-0.7-0.1-1-0.3L58,148.3l-30.4,10.6c-1,0.4-2.2-0.2-2.5-1.2c-0.4-1,0.2-2.2,1.2-2.5
				l31.3-10.9c0.5-0.2,1.2-0.1,1.7,0.2l38.2,21.9c1,0.5,1.3,1.8,0.7,2.7C97.8,169.7,97.1,170.1,96.4,170.1z"/>
		</g>
		<g id="선_34">
			<path class="st2" d="M48,226.6c-0.1,0-0.1,0-0.2,0c-1.1-0.1-1.9-1.1-1.8-2.2l3.4-31.1c0.1-1.1,1.1-1.9,2.2-1.8
				c1.1,0.1,1.9,1.1,1.8,2.2L50,224.8C49.9,225.8,49,226.6,48,226.6z"/>
		</g>
		<g id="패스_347">
			<path class="st2" d="M294.3,183.3c-0.4,0-0.8-0.1-1.1-0.4l-38.7-27l-35-6.6l-26.2,18c-0.6,0.4-1.4,0.5-2.1,0.1
				c-0.7-0.3-1.1-1-1.1-1.8l-0.4-143.3c0-1.1,0.9-2,2-2c0,0,0,0,0,0c1.1,0,2,0.9,2,2l0.4,139.5l23.8-16.3c0.4-0.3,1-0.4,1.5-0.3
				l36.2,6.8c0.3,0.1,0.5,0.2,0.8,0.3l39.1,27.2c0.9,0.6,1.1,1.9,0.5,2.8C295.5,183,294.9,183.3,294.3,183.3z"/>
		</g>
		<g id="패스_348">
			<path class="st2" d="M264.4,246.9c-0.4,0-0.9-0.1-1.2-0.4l-45.4-35.6c-0.1-0.1-0.3-0.2-0.4-0.4l-31-41c-0.7-0.9-0.5-2.1,0.4-2.8
				c0.9-0.7,2.1-0.5,2.8,0.4l30.9,40.8l45.2,35.4c0.9,0.7,1,1.9,0.3,2.8C265.6,246.7,265,246.9,264.4,246.9z"/>
		</g>
		<g id="패스_349">
			<path class="st3" d="M200.2,185.5"/>
		</g>
		<g id="선_36">
			<path class="st2" d="M238.6,193.4c-0.1,0-0.2,0-0.3,0l-37-6c-1.1-0.2-1.8-1.2-1.7-2.3c0.2-1.1,1.2-1.8,2.3-1.6l37,6
				c1.1,0.2,1.8,1.2,1.7,2.3C240.4,192.7,239.6,193.4,238.6,193.4z"/>
		</g>
		<g id="패스_350">
			<path class="st2" d="M213.2,265.7c-0.4,0-0.9-0.1-1.2-0.4c-0.9-0.7-1-1.9-0.4-2.8l9.7-12.4l-4.3-40.5c-0.1-1.1,0.7-2.1,1.8-2.2
				c1.1-0.1,2.1,0.7,2.2,1.8l4.4,41.3c0.1,0.5-0.1,1-0.4,1.4L214.8,265C214.4,265.5,213.8,265.7,213.2,265.7z"/>
		</g>
		<g id="선_37">
			<path class="st2" d="M218.3,190c-0.4,0-0.9-0.1-1.2-0.4c-0.9-0.7-1-1.9-0.4-2.8l10.9-14.1c0.7-0.9,1.9-1,2.8-0.4
				c0.9,0.7,1,1.9,0.4,2.8l-10.9,14.1C219.5,189.7,218.9,190,218.3,190z"/>
		</g>
	</g>
	<g id="그룹_151" transform="matrix(0.985, 0.174, -0.174, 0.985, 798.362, 6016.227)">
		<g id="그룹_150" transform="translate(0 0)">
			<g id="패스_353">
				<path class="st4" d="M18.6,71.7l-18.7,7.6l0,48.9l6.9,8.4l24.3-8.4l20.3-48.9l-21.9-6.4L31,57.2l-10.5-1.6L18.6,71.7z"/>
				<path d="M7,138.1c-0.5,0.1-1.1-0.1-1.4-0.5l-6.9-8.4c-0.2-0.3-0.3-0.6-0.3-0.9l0-48.9c0-0.6,0.4-1.2,0.9-1.4l17.9-7.2l1.9-15.2
					c0-0.4,0.3-0.8,0.6-1c0.3-0.2,0.7-0.3,1.1-0.3l10.5,1.6c0.8,0.1,1.3,0.8,1.3,1.6L31,71.8l20.7,6c0.4,0.1,0.7,0.4,0.9,0.8
					c0.2,0.4,0.2,0.8,0,1.2l-20.3,48.9c-0.2,0.4-0.5,0.7-0.9,0.8L7.2,138C7.2,138,7.1,138.1,7,138.1z M1.4,127.6l5.9,7.2l22.6-7.9
					l19.4-46.8L29,74.3c-0.7-0.2-1.1-0.9-1.1-1.6l1.5-14.3l-7.5-1.1l-1.8,14.5c-0.1,0.5-0.4,1-0.9,1.2L1.4,80.3L1.4,127.6z
					 M18.6,71.7L18.6,71.7L18.6,71.7z"/>
			</g>
			<g id="패스_354">
				<path class="st4" d="M17,58.7l17.4,2.5l6.7-58.6L24.1-0.3L17,58.7z"/>
				<path d="M34.7,62.6c-0.2,0-0.3,0-0.5,0l-17.4-2.5c-0.8-0.1-1.4-0.9-1.3-1.7l7.1-59c0-0.4,0.3-0.8,0.6-1s0.7-0.3,1.2-0.3
					l16.9,2.9c0.8,0.1,1.3,0.9,1.2,1.6l-6.7,58.6c0,0.4-0.3,0.8-0.6,1C35.1,62.5,34.9,62.6,34.7,62.6z M18.7,57.4l14.4,2l6.3-55.6
					l-14-2.4L18.7,57.4z"/>
			</g>
		</g>
		<g id="패스_355">
			<path d="M28.1,125.7c-0.3,0-0.6,0-0.8-0.1c-0.8-0.3-1.1-1.2-0.8-1.9l17.3-42.3c0.3-0.8,1.2-1.1,2-0.8c0.8,0.3,1.1,1.2,0.8,1.9
				l-17.3,42.3C29,125.3,28.6,125.7,28.1,125.7z"/>
		</g>
	</g>
</g>
</svg>
