<svg xmlns="http://www.w3.org/2000/svg" width="284.263" height="284.263" viewBox="0 0 284.263 284.263"><g transform="translate(-1057.168 -5941.599)"><path d="M142.132,0A142.132,142.132,0,1,1,0,142.132,141.843,141.843,0,0,1,142.132,0Z" transform="translate(1057.168 5941.599)" fill="#fff"/><path d="M209.091,12271.383h23.987" transform="translate(849.73 -6191.1)" fill="none" stroke="#707070" stroke-width="1"/><path d="M750.643,264.083v122.8" transform="translate(433.902 5682.72)" fill="none" stroke="#313131" stroke-linecap="round" stroke-linejoin="round" stroke-width="2"/><path d="M863.5,263.592V406.608" transform="translate(369.065 5687.572)" fill="none" stroke="#313131" stroke-linecap="round" stroke-linejoin="round" stroke-width="2"/><path d="M200.3,12271.383h57.369" transform="translate(1081.34 -6191.099)" fill="none" stroke="#707070" stroke-width="1"/><path d="M874.677,503.6" transform="translate(366.021 5610.457)" fill="none" stroke="#ededed" stroke-linecap="round" stroke-linejoin="round" stroke-width="4"/><path d="M743.559,412.209,639.516,471.142l-11.479,2.464" transform="translate(440.987 5657.393)" fill="none" stroke="#ededed" stroke-linecap="round" stroke-linejoin="round" stroke-width="2"/><path d="M748.543,470.5l-56.751,86.581-16.841,5.585" transform="translate(428.728 5619.473)" fill="none" stroke="#ededed" stroke-linecap="round" stroke-linejoin="round" stroke-width="2"/><path d="M817.138,487.5,813.5,550.8l6.922,55.412" transform="translate(382.687 5614.842)" fill="none" stroke="#ededed" stroke-linecap="round" stroke-linejoin="round" stroke-width="2"/><line x1="18.567" y2="16.621" transform="translate(1179.453 6133.741)" stroke-width="2" stroke="#ededed" stroke-linecap="round" stroke-linejoin="round" fill="none"/><line x2="27.755" y2="12.233" transform="translate(1197.534 6176.69)" stroke-width="2" stroke="#ededed" stroke-linecap="round" stroke-linejoin="round" fill="none"/><line x1="38.622" y2="6.697" transform="translate(1112.516 6129.841)" stroke-width="2" stroke="#ededed" stroke-linecap="round" stroke-linejoin="round" fill="none"/><path d="M5,0,1.844,17.133" transform="translate(1115 6177)" fill="none" stroke="#ededed" stroke-linecap="round" stroke-width="2"/><line x1="3.354" y2="31.171" transform="translate(1088.507 6122.102)" stroke-width="2" stroke="#ededed" stroke-linecap="round" stroke-linejoin="round" fill="none"/><path d="M863.5,437.086l26.893-18.511,36.218,6.867,39,26.41" transform="translate(369.066 5657.094)" fill="none" stroke="#ededed" stroke-linecap="round" stroke-linejoin="round" stroke-width="2"/><path d="M680.983,485.518l-38.2-22.018L611.5,474.414" transform="translate(455.944 5611.079)" fill="none" stroke="#ededed" stroke-linecap="round" stroke-linejoin="round" stroke-width="2"/><path d="M856.261,478.075,887.3,519.248l45.874,34.057" transform="translate(372.19 5618.745)" fill="none" stroke="#ededed" stroke-linecap="round" stroke-linejoin="round" stroke-width="2"/><line x2="37" y2="6" transform="translate(1241 6114)" stroke-width="2" stroke="#ededed" stroke-linecap="round" stroke-linejoin="round" fill="none"/><path d="M898.321,536.5l4.365,41.472-10.186,13.1" transform="translate(361.165 5601.493)" fill="none" stroke="#ededed" stroke-linecap="round" stroke-linejoin="round" stroke-width="2"/><line y1="14.188" x2="10.914" transform="translate(1258.758 6102.342)" stroke-width="2" stroke="#ededed" stroke-linecap="round" stroke-linejoin="round" fill="none"/><g transform="translate(1256.924 6146.974) rotate(-74)"><path d="M0,0H86.873V11.075H73.58V39.56l-7.5-3.66-7.711,3.66-6.2-3.66-4.942,3.66-5.7-3.66-5.9,3.66L30.086,35.9l-6.863,3.66L18.188,35.9l-6.544,3.66L6.039,35.9,0,39.56Z" transform="translate(0 3.827)" fill="#69baaf" stroke="#000" stroke-linecap="round" stroke-linejoin="round" stroke-width="3"/><path d="M0,0H86.873V11.075H73.58V32.639l-7.5-3.662-7.711,3.662-6.2-3.662-4.942,3.662-5.7-3.662-5.9,3.662-5.537-3.662-6.863,3.662-5.035-3.662-6.544,3.662L6.039,28.977,0,32.639Z" transform="translate(0 3.827)" fill="#69baaf" stroke="#000" stroke-linecap="round" stroke-linejoin="round" stroke-width="3"/><g transform="translate(79.267 0)" fill="#69baaf" stroke="#000" stroke-linecap="round" stroke-linejoin="round" stroke-width="3"><rect width="51.969" height="19.611" stroke="none"/><rect x="1.5" y="1.5" width="48.969" height="16.611" fill="none"/></g></g></g></svg>