<?xml version="1.0" encoding="utf-8"?>
<!-- Generator: Adobe Illustrator 24.0.2, SVG Export Plug-In . SVG Version: 6.00 Build 0)  -->
<svg version="1.1" id="레이어_1" xmlns="http://www.w3.org/2000/svg" xmlns:xlink="http://www.w3.org/1999/xlink" x="0px"
	 y="0px" viewBox="0 0 315.9 2142.6" style="enable-background:new 0 0 315.9 2142.6;" xml:space="preserve">
<style type="text/css">
	.st0{fill:#C3B9AE;}
	.st1{fill:#C4BAAF;}
	.st2{fill:#D8C9BF;}
	.st3{fill:#FFFFFF;}
</style>
<g>
	<g id="합치기_1">
		<path class="st0" d="M126.8,729.4V490.8l-21.2-299l-59.4-114L32.9,0h43.8l23.4,72.1l58.6,102.6l26.7,19l15.4-38.9V12.7H236v149.9
			l-22.6,70.2L236,632.7v92l-0.1,0l2.2,4.7L126.8,729.4z"/>
	</g>
	<g id="패스_379">
		<path class="st1" d="M101,823.6l-28,1.5l-25.7,11.7l3.5,2l23.8-6.5l28.2,4.5L101,823.6z"/>
	</g>
	<g id="패스_382">
		<path class="st1" d="M262.2,823.6l28,1.5l25.7,11.7l-3.5,2l-23.8-6.5l-28.2,4.5L262.2,823.6z"/>
	</g>
	<g id="패스_380">
		<path class="st1" d="M100.2,853.3l-31.7,6.6l-16.7-2l-1.4,5.8l19.1,4.4l30.6-2.7L100.2,853.3z"/>
	</g>
	<g id="패스_383">
		<path class="st1" d="M263,853.3l31.7,6.6l16.7-2l1.4,5.8l-19.1,4.4l-30.6-2.7L263,853.3z"/>
	</g>
	<g id="패스_381">
		<path class="st1" d="M100.2,882.4l-30,3.8l-21.3,10.2l4.3,3.1l19.5-4.9h27.5V882.4z"/>
	</g>
	<g id="패스_384">
		<path class="st1" d="M263,882.4l30,3.8l21.3,10.2l-4.3,3.1l-19.5-4.9H263V882.4z"/>
	</g>
	<g id="패스_377">
		<path class="st1" d="M131.5,712.4l-22.7,266L0,1286.3l22.3,469.9l79.4,366.2l17.3,20.3c0.1-0.9-44.1-407.9-44.1-407.9
			c1.5-1.1,0-391.4,0-391.4l93.1,425.3h21.3L119,1317.1l70.3-286.2l11-318.5H131.5z"/>
	</g>
	<g id="패스_378">
		<path class="st1" d="M231.1,832.2l38.9,280.4l30.6,476.4l-14.3,188.3l-28.7,16.5c0.4-0.1,0-219.1,0-219.1l-35-357.3l-21.6,139.1
			c0.5-0.4-20.2-23.3-20.2-23.3l33.5-184.8c0.4,0,0-196.2,0-196.2l-6.5-157L231.1,832.2z"/>
	</g>
	<g id="그룹_171" transform="translate(660.81 2873.714)">
		<g id="사각형_68">
			<rect x="-476.1" y="-2161" class="st2" width="85.2" height="200.9"/>
			<path class="st3" d="M-388.9-1958.1h-89.2V-2163h89.2V-1958.1z M-474.1-1962.1h81.2V-2159h-81.2V-1962.1z"/>
		</g>
		<g id="사각형_69">
			<rect x="-569" y="-2161" class="st2" width="85.2" height="200.9"/>
			<path class="st3" d="M-481.8-1958.1H-571V-2163h89.2V-1958.1z M-567-1962.1h81.2V-2159H-567V-1962.1z"/>
		</g>
		<g id="타원_38">
			<circle class="st2" cx="-527.8" cy="-2044.8" r="6.1"/>
			<path class="st3" d="M-527.8-2036.7c-4.5,0-8.1-3.6-8.1-8.1s3.6-8.1,8.1-8.1s8.1,3.6,8.1,8.1S-523.3-2036.7-527.8-2036.7z
				 M-527.8-2048.9c-2.3,0-4.1,1.9-4.1,4.1s1.9,4.1,4.1,4.1s4.1-1.9,4.1-4.1S-525.5-2048.9-527.8-2048.9z"/>
		</g>
		<g id="타원_38-2">
			<circle class="st2" cx="-553.4" cy="-2044.8" r="6.1"/>
			<path class="st3" d="M-553.4-2036.7c-4.5,0-8.1-3.6-8.1-8.1s3.6-8.1,8.1-8.1s8.1,3.6,8.1,8.1S-548.9-2036.7-553.4-2036.7z
				 M-553.4-2048.9c-2.3,0-4.1,1.9-4.1,4.1s1.9,4.1,4.1,4.1s4.1-1.9,4.1-4.1S-551.1-2048.9-553.4-2048.9z"/>
		</g>
		<g id="타원_38-3">
			<circle class="st2" cx="-527.8" cy="-2014.1" r="6.1"/>
			<path class="st3" d="M-527.8-2006c-4.5,0-8.1-3.6-8.1-8.1s3.6-8.1,8.1-8.1s8.1,3.6,8.1,8.1S-523.3-2006-527.8-2006z
				 M-527.8-2018.3c-2.3,0-4.1,1.9-4.1,4.1s1.9,4.1,4.1,4.1s4.1-1.9,4.1-4.1S-525.5-2018.3-527.8-2018.3z"/>
		</g>
		<g id="타원_38-4">
			<circle class="st2" cx="-553.4" cy="-2014.1" r="6.1"/>
			<path class="st3" d="M-553.4-2006c-4.5,0-8.1-3.6-8.1-8.1s3.6-8.1,8.1-8.1s8.1,3.6,8.1,8.1S-548.9-2006-553.4-2006z
				 M-553.4-2018.3c-2.3,0-4.1,1.9-4.1,4.1s1.9,4.1,4.1,4.1s4.1-1.9,4.1-4.1S-551.1-2018.3-553.4-2018.3z"/>
		</g>
		<g id="타원_38-5">
			<circle class="st2" cx="-527.8" cy="-1983.5" r="6.1"/>
			<path class="st3" d="M-527.8-1975.3c-4.5,0-8.1-3.6-8.1-8.1s3.6-8.1,8.1-8.1s8.1,3.6,8.1,8.1S-523.3-1975.3-527.8-1975.3z
				 M-527.8-1987.6c-2.3,0-4.1,1.9-4.1,4.1s1.9,4.1,4.1,4.1s4.1-1.9,4.1-4.1S-525.5-1987.6-527.8-1987.6z"/>
		</g>
		<g id="타원_38-6">
			<circle class="st2" cx="-501" cy="-2044.8" r="6.1"/>
			<path class="st3" d="M-501-2036.7c-4.5,0-8.1-3.6-8.1-8.1s3.6-8.1,8.1-8.1s8.1,3.6,8.1,8.1S-496.5-2036.7-501-2036.7z
				 M-501-2048.9c-2.3,0-4.1,1.9-4.1,4.1s1.9,4.1,4.1,4.1c2.3,0,4.1-1.9,4.1-4.1S-498.7-2048.9-501-2048.9z"/>
		</g>
		<g id="타원_38-7">
			<circle class="st2" cx="-527.8" cy="-2075.3" r="6.1"/>
			<path class="st3" d="M-527.8-2067.1c-4.5,0-8.1-3.6-8.1-8.1s3.6-8.1,8.1-8.1s8.1,3.6,8.1,8.1S-523.3-2067.1-527.8-2067.1z
				 M-527.8-2079.4c-2.3,0-4.1,1.9-4.1,4.1s1.9,4.1,4.1,4.1s4.1-1.9,4.1-4.1S-525.5-2079.4-527.8-2079.4z"/>
		</g>
		<g id="타원_38-8">
			<circle class="st2" cx="-553.4" cy="-2075.3" r="6.1"/>
			<path class="st3" d="M-553.4-2067.1c-4.5,0-8.1-3.6-8.1-8.1s3.6-8.1,8.1-8.1s8.1,3.6,8.1,8.1S-548.9-2067.1-553.4-2067.1z
				 M-553.4-2079.4c-2.3,0-4.1,1.9-4.1,4.1s1.9,4.1,4.1,4.1s4.1-1.9,4.1-4.1S-551.1-2079.4-553.4-2079.4z"/>
		</g>
		<g id="타원_38-9">
			<circle class="st2" cx="-501" cy="-2075.3" r="6.1"/>
			<path class="st3" d="M-501-2067.1c-4.5,0-8.1-3.6-8.1-8.1s3.6-8.1,8.1-8.1s8.1,3.6,8.1,8.1S-496.5-2067.1-501-2067.1z
				 M-501-2079.4c-2.3,0-4.1,1.9-4.1,4.1s1.9,4.1,4.1,4.1c2.3,0,4.1-1.9,4.1-4.1S-498.7-2079.4-501-2079.4z"/>
		</g>
		<g id="타원_38-10">
			<circle class="st2" cx="-501" cy="-2014.1" r="6.1"/>
			<path class="st3" d="M-501-2006c-4.5,0-8.1-3.6-8.1-8.1s3.6-8.1,8.1-8.1s8.1,3.6,8.1,8.1S-496.5-2006-501-2006z M-501-2018.3
				c-2.3,0-4.1,1.9-4.1,4.1s1.9,4.1,4.1,4.1c2.3,0,4.1-1.9,4.1-4.1S-498.7-2018.3-501-2018.3z"/>
		</g>
		<g id="타원_38-11">
			<circle class="st2" cx="-501" cy="-1983.5" r="6.1"/>
			<path class="st3" d="M-501-1975.3c-4.5,0-8.1-3.6-8.1-8.1s3.6-8.1,8.1-8.1s8.1,3.6,8.1,8.1S-496.5-1975.3-501-1975.3z
				 M-501-1987.6c-2.3,0-4.1,1.9-4.1,4.1s1.9,4.1,4.1,4.1c2.3,0,4.1-1.9,4.1-4.1S-498.7-1987.6-501-1987.6z"/>
		</g>
		<g id="타원_38-12">
			<circle class="st2" cx="-553.4" cy="-1983.5" r="6.1"/>
			<path class="st3" d="M-553.4-1975.3c-4.5,0-8.1-3.6-8.1-8.1s3.6-8.1,8.1-8.1s8.1,3.6,8.1,8.1S-548.9-1975.3-553.4-1975.3z
				 M-553.4-1987.6c-2.3,0-4.1,1.9-4.1,4.1s1.9,4.1,4.1,4.1s4.1-1.9,4.1-4.1S-551.1-1987.6-553.4-1987.6z"/>
		</g>
		<g id="타원_38-13">
			<circle class="st2" cx="-432.6" cy="-2044.8" r="6.1"/>
			<path class="st3" d="M-432.6-2036.7c-4.5,0-8.1-3.6-8.1-8.1s3.6-8.1,8.1-8.1s8.1,3.6,8.1,8.1S-428.1-2036.7-432.6-2036.7z
				 M-432.6-2048.9c-2.3,0-4.1,1.9-4.1,4.1s1.9,4.1,4.1,4.1s4.1-1.9,4.1-4.1S-430.3-2048.9-432.6-2048.9z"/>
		</g>
		<g id="타원_38-14">
			<circle class="st2" cx="-458.1" cy="-2044.8" r="6.1"/>
			<path class="st3" d="M-458.1-2036.7c-4.5,0-8.1-3.6-8.1-8.1s3.6-8.1,8.1-8.1s8.1,3.6,8.1,8.1S-453.6-2036.7-458.1-2036.7z
				 M-458.1-2048.9c-2.3,0-4.1,1.9-4.1,4.1s1.9,4.1,4.1,4.1c2.3,0,4.1-1.9,4.1-4.1S-455.9-2048.9-458.1-2048.9z"/>
		</g>
		<g id="타원_38-15">
			<circle class="st2" cx="-432.6" cy="-2014.1" r="6.1"/>
			<path class="st3" d="M-432.6-2006c-4.5,0-8.1-3.6-8.1-8.1s3.6-8.1,8.1-8.1s8.1,3.6,8.1,8.1S-428.1-2006-432.6-2006z
				 M-432.6-2018.3c-2.3,0-4.1,1.9-4.1,4.1s1.9,4.1,4.1,4.1s4.1-1.9,4.1-4.1S-430.3-2018.3-432.6-2018.3z"/>
		</g>
		<g id="타원_38-16">
			<circle class="st2" cx="-458.1" cy="-2014.1" r="6.1"/>
			<path class="st3" d="M-458.1-2006c-4.5,0-8.1-3.6-8.1-8.1s3.6-8.1,8.1-8.1s8.1,3.6,8.1,8.1S-453.6-2006-458.1-2006z
				 M-458.1-2018.3c-2.3,0-4.1,1.9-4.1,4.1s1.9,4.1,4.1,4.1c2.3,0,4.1-1.9,4.1-4.1S-455.9-2018.3-458.1-2018.3z"/>
		</g>
		<g id="타원_38-17">
			<circle class="st2" cx="-432.6" cy="-1983.5" r="6.1"/>
			<path class="st3" d="M-432.6-1975.3c-4.5,0-8.1-3.6-8.1-8.1s3.6-8.1,8.1-8.1s8.1,3.6,8.1,8.1S-428.1-1975.3-432.6-1975.3z
				 M-432.6-1987.6c-2.3,0-4.1,1.9-4.1,4.1s1.9,4.1,4.1,4.1s4.1-1.9,4.1-4.1S-430.3-1987.6-432.6-1987.6z"/>
		</g>
		<g id="타원_38-18">
			<circle class="st2" cx="-405.8" cy="-2044.8" r="6.1"/>
			<path class="st3" d="M-405.8-2036.7c-4.5,0-8.1-3.6-8.1-8.1s3.6-8.1,8.1-8.1s8.1,3.6,8.1,8.1S-401.3-2036.7-405.8-2036.7z
				 M-405.8-2048.9c-2.3,0-4.1,1.9-4.1,4.1s1.9,4.1,4.1,4.1s4.1-1.9,4.1-4.1S-403.5-2048.9-405.8-2048.9z"/>
		</g>
		<g id="타원_38-19">
			<circle class="st2" cx="-432.6" cy="-2075.3" r="6.1"/>
			<path class="st3" d="M-432.6-2067.1c-4.5,0-8.1-3.6-8.1-8.1s3.6-8.1,8.1-8.1s8.1,3.6,8.1,8.1S-428.1-2067.1-432.6-2067.1z
				 M-432.6-2079.4c-2.3,0-4.1,1.9-4.1,4.1s1.9,4.1,4.1,4.1s4.1-1.9,4.1-4.1S-430.3-2079.4-432.6-2079.4z"/>
		</g>
		<g id="타원_38-20">
			<circle class="st2" cx="-458.1" cy="-2075.3" r="6.1"/>
			<path class="st3" d="M-458.1-2067.1c-4.5,0-8.1-3.6-8.1-8.1s3.6-8.1,8.1-8.1s8.1,3.6,8.1,8.1S-453.6-2067.1-458.1-2067.1z
				 M-458.1-2079.4c-2.3,0-4.1,1.9-4.1,4.1s1.9,4.1,4.1,4.1c2.3,0,4.1-1.9,4.1-4.1S-455.9-2079.4-458.1-2079.4z"/>
		</g>
		<g id="타원_38-21">
			<circle class="st2" cx="-405.8" cy="-2075.3" r="6.1"/>
			<path class="st3" d="M-405.8-2067.1c-4.5,0-8.1-3.6-8.1-8.1s3.6-8.1,8.1-8.1s8.1,3.6,8.1,8.1S-401.3-2067.1-405.8-2067.1z
				 M-405.8-2079.4c-2.3,0-4.1,1.9-4.1,4.1s1.9,4.1,4.1,4.1s4.1-1.9,4.1-4.1S-403.5-2079.4-405.8-2079.4z"/>
		</g>
		<g id="타원_38-22">
			<circle class="st2" cx="-405.8" cy="-2014.1" r="6.1"/>
			<path class="st3" d="M-405.8-2006c-4.5,0-8.1-3.6-8.1-8.1s3.6-8.1,8.1-8.1s8.1,3.6,8.1,8.1S-401.3-2006-405.8-2006z
				 M-405.8-2018.3c-2.3,0-4.1,1.9-4.1,4.1s1.9,4.1,4.1,4.1s4.1-1.9,4.1-4.1S-403.5-2018.3-405.8-2018.3z"/>
		</g>
		<g id="타원_38-23">
			<circle class="st2" cx="-405.8" cy="-1983.5" r="6.1"/>
			<path class="st3" d="M-405.8-1975.3c-4.5,0-8.1-3.6-8.1-8.1s3.6-8.1,8.1-8.1s8.1,3.6,8.1,8.1S-401.3-1975.3-405.8-1975.3z
				 M-405.8-1987.6c-2.3,0-4.1,1.9-4.1,4.1s1.9,4.1,4.1,4.1s4.1-1.9,4.1-4.1S-403.5-1987.6-405.8-1987.6z"/>
		</g>
		<g id="타원_38-24">
			<circle class="st2" cx="-458.1" cy="-1983.5" r="6.1"/>
			<path class="st3" d="M-458.1-1975.3c-4.5,0-8.1-3.6-8.1-8.1s3.6-8.1,8.1-8.1s8.1,3.6,8.1,8.1S-453.6-1975.3-458.1-1975.3z
				 M-458.1-1987.6c-2.3,0-4.1,1.9-4.1,4.1s1.9,4.1,4.1,4.1c2.3,0,4.1-1.9,4.1-4.1S-455.9-1987.6-458.1-1987.6z"/>
		</g>
	</g>
</g>
</svg>
