<?xml version="1.0" encoding="utf-8"?>
<!-- Generator: Adobe Illustrator 24.0.2, SVG Export Plug-In . SVG Version: 6.00 Build 0)  -->
<svg version="1.1" id="레이어_1" xmlns="http://www.w3.org/2000/svg" xmlns:xlink="http://www.w3.org/1999/xlink" x="0px"
	 y="0px" viewBox="0 0 284 284" style="enable-background:new 0 0 284 284;" xml:space="preserve">
<style type="text/css">
	.st0{fill:#FFFFFF;}
	.st1{fill:#707070;}
	.st2{fill:#6FB1B9;}
	.st3{fill:#8DC794;}
</style>
<g id="그룹_183" transform="translate(-310.001 -4417.001)">
	<g id="타원_188">
		<circle class="st0" cx="452.5" cy="4558.6" r="142"/>
	</g>
	<g id="패스_352">
		<rect x="311.4" y="4573.5" class="st1" width="281.8" height="1"/>
	</g>
	<g id="패스_402">
		<path class="st2" d="M433,4535.6l-14.7-14.7l-30,30l-29.8-29.8l-14.7,14.7l34.2,34.2v46.1h20.7v-46.4L433,4535.6z"/>
		<path d="M400.4,4617.7h-23.7v-46.9l-34.8-34.8l16.8-16.8l29.8,29.8l30-30l16.8,16.8l-34.8,34.8V4617.7z M379.6,4614.7h17.7v-45.5
			l33.5-33.5l-12.6-12.6l-30,30l-29.8-29.8l-12.6,12.5l33.6,33.6V4614.7z"/>
	</g>
</g>
<g id="패스_448">
	<path class="st3" d="M268.2,159.8H119.2c-1.4,0-2.5-1.1-2.5-2.5s1.1-2.5,2.5-2.5h148.9c1.4,0,2.5,1.1,2.5,2.5
		S269.5,159.8,268.2,159.8z"/>
</g>
</svg>
