<?xml version="1.0" encoding="utf-8"?>
<!-- Generator: Adobe Illustrator 24.0.2, SVG Export Plug-In . SVG Version: 6.00 Build 0)  -->
<svg version="1.1" id="레이어_1" xmlns="http://www.w3.org/2000/svg" xmlns:xlink="http://www.w3.org/1999/xlink" x="0px"
	 y="0px" viewBox="0 0 284 284" style="enable-background:new 0 0 284 284;" xml:space="preserve">
<style type="text/css">
	.st0{fill:#FFFFFF;}
	.st1{fill:#707070;}
	.st2{fill:#6FB1B9;}
	.st3{fill:#313131;}
	.st4{fill:#8DC794;}
</style>
<g id="그룹_229" transform="translate(-1355.999 -4417)">
	<g id="패스_440">
		<path class="st0" d="M1498.5,4416.6c78.4,0,142,63.6,142,142s-63.6,142-142,142s-142-63.6-142-142S1420.1,4416.6,1498.5,4416.6z"
			/>
	</g>
	<g id="패스_426">
		<rect x="1466.2" y="4535.6" class="st1" width="172.7" height="1"/>
	</g>
	<g id="패스_430">
		<rect x="1358.1" y="4535.6" class="st1" width="58.8" height="1"/>
	</g>
	<g id="패스_427">
		<path class="st2" d="M1467.4,4499.4l-13.3-13.3l-27.2,27.2l-26.9-26.9l-13.3,13.3l31,31v41.7h18.8v-42L1467.4,4499.4z"/>
		<path d="M1438,4573.8h-21.8v-42.6l-31.6-31.6l15.4-15.4l26.9,26.9l27.2-27.2l15.4,15.4l-31.5,31.5V4573.8z M1419.2,4570.8h15.8
			v-41.1l30.3-30.3l-11.2-11.2l-27.2,27.2l-26.9-26.9l-11.2,11.2l30.3,30.3V4570.8z"/>
	</g>
	<g id="패스_424">
		<path class="st3" d="M1509,4457.5c-1.4,0-2.7-0.1-4-0.4c-7.2-1.5-9.3-4.9-9.9-6.8c-0.8-2.4-0.1-5,1.8-7c2-2.2,5-3,8-2.2
			c5.3,1.4,6.8,4.6,6.4,7.2c-0.4,2.2-2.1,3.9-4.1,3.8c-0.6,0-1-0.5-0.9-1.1c0-0.6,0.5-1,1.1-0.9c0.9,0.1,1.8-0.9,1.9-2.1
			c0.3-1.7-0.9-3.9-4.9-5c-2.2-0.6-4.5,0-6,1.7c-1.3,1.4-1.8,3.3-1.3,5c0.8,2.6,3.8,4.5,8.4,5.5c14.8,3,34.8-15.1,35-15.2
			c0.4-0.4,1-0.3,1.4,0.1c0.4,0.4,0.3,1-0.1,1.4c-0.2,0.2-5.3,4.8-12.3,9C1521.7,4455.1,1514.8,4457.5,1509,4457.5z"/>
	</g>
	<g id="패스_425">
		<path class="st3" d="M1551.9,4483.9c-1.4,0-2.7-0.1-4-0.4c-7.2-1.5-9.3-4.9-9.9-6.8c-0.8-2.4-0.1-5,1.8-7c2-2.2,5-3,8-2.2
			c5.3,1.4,6.8,4.6,6.4,7.2c-0.4,2.2-2.1,3.9-4.1,3.8c-0.6,0-1-0.5-0.9-1.1c0-0.6,0.5-1,1.1-0.9c0.9,0.1,1.8-0.9,1.9-2.1
			c0.3-1.7-0.9-3.9-4.9-5c-2.2-0.6-4.5,0-6,1.7c-1.3,1.4-1.8,3.3-1.3,5c0.8,2.6,3.8,4.5,8.4,5.5c14.8,3,34.8-15.1,35-15.2
			c0.4-0.4,1-0.3,1.4,0.1c0.4,0.4,0.3,1-0.1,1.4c-0.2,0.2-5.3,4.8-12.3,9C1564.6,4481.6,1557.7,4483.9,1551.9,4483.9z"/>
	</g>
	<g id="패스_431">
		<path class="st2" d="M1537.4,4649.7c-0.2,0-0.4,0-0.6-0.1c-30.5-10.3-27.9-87.8-27.8-91.1c0-1.1,1-2,2.1-1.9c1.1,0,2,1,1.9,2.1
			c0,0.2-0.7,19.9,2.2,40.5c2.6,18.6,8.7,41.8,22.9,46.6c1,0.4,1.6,1.5,1.3,2.5C1539.1,4649.2,1538.3,4649.7,1537.4,4649.7z"/>
	</g>
	<g id="패스_432">
		<path class="st2" d="M1513.7,4649.7c-0.2,0-0.4,0-0.6-0.1c-30.5-10.3-27.9-87.8-27.8-91.1c0-1.1,1-2,2.1-1.9c1.1,0,2,1,1.9,2.1
			c0,0.2-0.7,19.9,2.2,40.5c2.6,18.6,8.7,41.8,22.9,46.6c1,0.4,1.6,1.5,1.3,2.5C1515.3,4649.2,1514.5,4649.7,1513.7,4649.7z"/>
	</g>
	<g id="패스_433">
		<path class="st2" d="M1493.3,4649.7c-0.2,0-0.4,0-0.6-0.1c-30.5-10.3-27.9-87.8-27.8-91.1c0-1.1,1-2,2.1-1.9c1.1,0,2,1,1.9,2.1
			c0,0.2-0.7,19.9,2.2,40.5c2.6,18.6,8.7,41.8,22.9,46.6c1,0.4,1.6,1.5,1.3,2.5C1494.9,4649.2,1494.1,4649.7,1493.3,4649.7z"/>
	</g>
	<g id="타원_232">
		<ellipse class="st4" cx="1442.9" cy="4654.3" rx="7.4" ry="7.4"/>
	</g>
	<g id="그룹_219" transform="translate(4 -4)">
		<g id="타원_233">
			<ellipse class="st4" cx="1479" cy="4673.2" rx="7.4" ry="7.4"/>
		</g>
		<g id="타원_231">
			<ellipse class="st4" cx="1481.6" cy="4681.2" rx="7.4" ry="7.4"/>
		</g>
	</g>
	<g id="그룹_218" transform="translate(-5 1)">
		<g id="타원_226">
			<ellipse class="st4" cx="1552.2" cy="4623.5" rx="7.4" ry="7.4"/>
		</g>
		<g id="타원_227">
			<ellipse class="st4" cx="1561.2" cy="4615.8" rx="7.4" ry="7.4"/>
		</g>
		<g id="타원_228">
			<ellipse class="st4" cx="1563.8" cy="4624.8" rx="7.4" ry="7.4"/>
		</g>
		<g id="타원_229">
			<ellipse class="st4" cx="1572.8" cy="4622.2" rx="7.4" ry="7.4"/>
		</g>
	</g>
	<g id="타원_230">
		<ellipse class="st4" cx="1444" cy="4614.6" rx="4" ry="4"/>
	</g>
</g>
</svg>
