<svg xmlns="http://www.w3.org/2000/svg" width="569.008" height="451.852" viewBox="0 0 569.008 451.852"><g transform="matrix(0.966, 0.259, -0.259, 0.966, -961.68, -582.394)"><path d="M-12141.394-2444.388s-81.414,213.7-302.416,258.837-147.3-83.161-97.6-92.36,99.186,6.313,76.065,30.294c-3.166,2.27-14.905-19.564-36.3,0s39.49,54.846,154.772,0S-12141.394-2444.388-12141.394-2444.388Z" transform="translate(13801 2724)" fill="#f5f5f5"/><path d="M-12184.34-2486.6s-117.587,208.594-291.524,243.736-115.935-64.748-76.818-71.91,78.063,4.915,59.866,23.586c-2.491,1.768-11.73-15.232-28.57,0s-13.927,23.274,101.954-9.162S-12184.34-2486.6-12184.34-2486.6Z" transform="translate(13763.457 2883)" fill="#f5f5f5"/></g></svg>