<?xml version="1.0" encoding="utf-8"?>
<!-- Generator: Adobe Illustrator 24.0.2, SVG Export Plug-In . SVG Version: 6.00 Build 0)  -->
<svg version="1.1" id="레이어_1" xmlns="http://www.w3.org/2000/svg" xmlns:xlink="http://www.w3.org/1999/xlink" x="0px"
	 y="0px" viewBox="0 0 284 284" style="enable-background:new 0 0 284 284;" xml:space="preserve">
<style type="text/css">
	.st0{fill:#FFFFFF;}
	.st1{fill:none;stroke:#707070;}
	.st2{fill:none;stroke:#313131;stroke-width:4;stroke-linecap:round;stroke-linejoin:round;}
	.st3{fill:none;stroke:#313131;stroke-width:4;stroke-linecap:round;}
	.st4{fill:#69BAAF;}
	.st5{fill:none;stroke:#000000;stroke-width:3;}
	.st6{fill:none;stroke:#000000;}
	.st7{fill:#313131;}
	.st8{fill:#707070;}
</style>
<g id="그룹_249" transform="translate(-576.795 -6390.938)">
	<path id="패스_388" class="st0" d="M1257.9,6633.4c78.5,0,142.1,63.6,142.1,142.1c0,78.5-63.6,142.1-142.1,142.1
		s-142.1-63.6-142.1-142.1C1115.8,6697.1,1179.4,6633.4,1257.9,6633.4C1257.9,6633.4,1257.9,6633.4,1257.9,6633.4z"/>
	<path id="패스_369" class="st1" d="M1118.6,6772.1h83.8"/>
	<path id="패스_368" class="st2" d="M1244.7,6638.9v122.5"/>
	<path id="패스_366" class="st2" d="M1292.8,6641.8V6786"/>
	<path id="패스_370" class="st3" d="M1249.1,6831.3l2,43l-3.7,39.2"/>
	<path id="패스_371" class="st3" d="M1260.7,6831.3l1.7,57.5l4.8,25.5"/>
	<path id="패스_372" class="st3" d="M1261.8,6869l23.3,17.5"/>
	<path id="패스_373" class="st3" d="M1290.9,6823.4l8.9,61.4l-4.6,23.2"/>
	<path id="패스_374" class="st3" d="M1297.9,6894.7l-20.8,13.7"/>
	<path id="패스_375" class="st3" d="M1296.7,6862.8l19,21.7"/>
	<g id="사각형_55" transform="translate(691 6518)">
		<rect x="539" y="242.5" class="st4" width="38" height="86"/>
		<rect x="540.5" y="244" class="st5" width="35" height="83"/>
	</g>
	<g id="사각형_54" transform="translate(732 6518)">
		<rect x="539" y="242.5" class="st4" width="38" height="86"/>
		<rect x="540.5" y="244" class="st5" width="35" height="83"/>
	</g>
	<path id="패스_367" class="st1" d="M1341.8,6772.1h57.2"/>
	<g id="타원_209" transform="translate(739 6561)">
		<circle class="st0" cx="542.5" cy="246" r="3.5"/>
		<circle class="st6" cx="542.5" cy="246" r="3"/>
	</g>
	<g id="타원_237" transform="translate(755 6561)">
		<circle class="st0" cx="542.5" cy="246" r="3.5"/>
		<circle class="st6" cx="542.5" cy="246" r="3"/>
	</g>
	<g id="타원_211" transform="translate(739 6574)">
		<circle class="st0" cx="542.5" cy="246" r="3.5"/>
		<circle class="st6" cx="542.5" cy="246" r="3"/>
	</g>
	<g id="타원_238" transform="translate(755 6574)">
		<circle class="st0" cx="542.5" cy="246" r="3.5"/>
		<circle class="st6" cx="542.5" cy="246" r="3"/>
	</g>
	<g id="타원_213" transform="translate(739 6587)">
		<circle class="st0" cx="542.5" cy="246" r="3.5"/>
		<circle class="st6" cx="542.5" cy="246" r="3"/>
	</g>
	<g id="타원_239" transform="translate(755 6587)">
		<circle class="st0" cx="542.5" cy="246" r="3.5"/>
		<circle class="st6" cx="542.5" cy="246" r="3"/>
	</g>
	<g id="타원_214" transform="translate(714 6561)">
		<circle class="st0" cx="542.5" cy="246" r="3.5"/>
		<circle class="st6" cx="542.5" cy="246" r="3"/>
	</g>
	<g id="타원_234" transform="translate(699 6561)">
		<circle class="st0" cx="542.5" cy="246" r="3.5"/>
		<circle class="st6" cx="542.5" cy="246" r="3"/>
	</g>
	<g id="타원_216" transform="translate(714 6574)">
		<circle class="st0" cx="542.5" cy="246" r="3.5"/>
		<circle class="st6" cx="542.5" cy="246" r="3"/>
	</g>
	<g id="타원_235" transform="translate(699 6574)">
		<circle class="st0" cx="542.5" cy="246" r="3.5"/>
		<circle class="st6" cx="542.5" cy="246" r="3"/>
	</g>
	<g id="타원_218" transform="translate(714 6587)">
		<circle class="st0" cx="542.5" cy="246" r="3.5"/>
		<circle class="st6" cx="542.5" cy="246" r="3"/>
	</g>
	<g id="타원_236" transform="translate(699 6587)">
		<circle class="st0" cx="542.5" cy="246" r="3.5"/>
		<circle class="st6" cx="542.5" cy="246" r="3"/>
	</g>
</g>
<g id="그룹_249_1_" transform="translate(-576.795 -6390.938)">
	<path id="패스_388_1_" class="st0" d="M1257.9,6633.4c78.5,0,142.1,63.6,142.1,142.1c0,78.5-63.6,142.1-142.1,142.1
		s-142.1-63.6-142.1-142.1C1115.8,6697.1,1179.4,6633.4,1257.9,6633.4C1257.9,6633.4,1257.9,6633.4,1257.9,6633.4z"/>
	<path id="패스_369_1_" class="st1" d="M1118.6,6772.1h83.8"/>
	<path id="패스_368_1_" class="st2" d="M1244.7,6638.9v122.5"/>
	<path id="패스_366_1_" class="st2" d="M1292.8,6641.8V6786"/>
	<path id="패스_370_1_" class="st3" d="M1249.1,6831.3l2,43l-3.7,39.2"/>
	<path id="패스_371_1_" class="st3" d="M1260.7,6831.3l1.7,57.5l4.8,25.5"/>
	<path id="패스_372_1_" class="st3" d="M1261.8,6869l23.3,17.5"/>
	<path id="패스_373_1_" class="st3" d="M1290.9,6823.4l8.9,61.4l-4.6,23.2"/>
	<path id="패스_374_1_" class="st3" d="M1297.9,6894.7l-20.8,13.7"/>
	<path id="패스_375_1_" class="st3" d="M1296.7,6862.8l19,21.7"/>
	<g id="사각형_55_1_" transform="translate(691 6518)">
		<rect x="539" y="242.5" class="st4" width="38" height="86"/>
		<rect x="540.5" y="244" class="st5" width="35" height="83"/>
	</g>
	<g id="사각형_54_1_" transform="translate(732 6518)">
		<rect x="539" y="242.5" class="st4" width="38" height="86"/>
		<rect x="540.5" y="244" class="st5" width="35" height="83"/>
	</g>
	<path id="패스_367_1_" class="st1" d="M1341.8,6772.1h57.2"/>
	<g id="타원_209_1_" transform="translate(739 6561)">
		<circle class="st0" cx="542.5" cy="246" r="3.5"/>
		<circle class="st6" cx="542.5" cy="246" r="3"/>
	</g>
	<g id="타원_237_1_" transform="translate(755 6561)">
		<circle class="st0" cx="542.5" cy="246" r="3.5"/>
		<circle class="st6" cx="542.5" cy="246" r="3"/>
	</g>
	<g id="타원_211_1_" transform="translate(739 6574)">
		<circle class="st0" cx="542.5" cy="246" r="3.5"/>
		<circle class="st6" cx="542.5" cy="246" r="3"/>
	</g>
	<g id="타원_238_1_" transform="translate(755 6574)">
		<circle class="st0" cx="542.5" cy="246" r="3.5"/>
		<circle class="st6" cx="542.5" cy="246" r="3"/>
	</g>
	<g id="타원_213_1_" transform="translate(739 6587)">
		<circle class="st0" cx="542.5" cy="246" r="3.5"/>
		<circle class="st6" cx="542.5" cy="246" r="3"/>
	</g>
	<g id="타원_239_1_" transform="translate(755 6587)">
		<circle class="st0" cx="542.5" cy="246" r="3.5"/>
		<circle class="st6" cx="542.5" cy="246" r="3"/>
	</g>
	<g id="타원_214_1_" transform="translate(714 6561)">
		<circle class="st0" cx="542.5" cy="246" r="3.5"/>
		<circle class="st6" cx="542.5" cy="246" r="3"/>
	</g>
	<g id="타원_234_1_" transform="translate(699 6561)">
		<circle class="st0" cx="542.5" cy="246" r="3.5"/>
		<circle class="st6" cx="542.5" cy="246" r="3"/>
	</g>
	<g id="타원_216_1_" transform="translate(714 6574)">
		<circle class="st0" cx="542.5" cy="246" r="3.5"/>
		<circle class="st6" cx="542.5" cy="246" r="3"/>
	</g>
	<g id="타원_235_1_" transform="translate(699 6574)">
		<circle class="st0" cx="542.5" cy="246" r="3.5"/>
		<circle class="st6" cx="542.5" cy="246" r="3"/>
	</g>
	<g id="타원_218_1_" transform="translate(714 6587)">
		<circle class="st0" cx="542.5" cy="246" r="3.5"/>
		<circle class="st6" cx="542.5" cy="246" r="3"/>
	</g>
	<g id="타원_236_1_" transform="translate(699 6587)">
		<circle class="st0" cx="542.5" cy="246" r="3.5"/>
		<circle class="st6" cx="542.5" cy="246" r="3"/>
	</g>
</g>
<g id="그룹_248" transform="translate(-1056.049 -6390.938)">
	<g id="패스_388_2_">
		<path class="st0" d="M1198.2,6390.9c78.4,0,142,63.6,142,142s-63.6,142-142,142s-142-63.6-142-142S1119.8,6390.9,1198.2,6390.9
			C1198.2,6390.9,1198.2,6390.9,1198.2,6390.9z"/>
	</g>
	<g id="그룹_207" transform="translate(1159.755 6564.249)">
		<g id="그룹_207-2">
			<g id="패스_442">
				<path class="st7" d="M0,31.2c-1,0-1.8-0.7-2-1.7c-0.2-1.1,0.6-2.1,1.7-2.3l15.8-2.6c1.1-0.2,2.1,0.6,2.3,1.7
					c0.2,1.1-0.6,2.1-1.7,2.3L0.4,31.2C0.2,31.2,0.1,31.2,0,31.2z"/>
			</g>
			<g id="패스_443">
				<path class="st7" d="M0,17.8c-1,0-1.8-0.7-2-1.7c-0.2-1.1,0.6-2.1,1.7-2.3l15.8-2.6c1.1-0.2,2.1,0.6,2.3,1.7
					c0.2,1.1-0.6,2.1-1.7,2.3L0.4,17.8C0.2,17.8,0.1,17.8,0,17.8z"/>
			</g>
			<g id="패스_444">
				<path class="st7" d="M0,4.4c-1,0-1.8-0.7-2-1.7c-0.2-1.1,0.6-2.1,1.7-2.3l15.8-2.6c1.1-0.2,2.1,0.6,2.3,1.7
					c0.2,1.1-0.6,2.1-1.7,2.3L0.4,4.4C0.2,4.4,0.1,4.4,0,4.4z"/>
			</g>
			<g id="그룹_207-3" transform="translate(83.936)">
				<g id="패스_446">
					<path class="st7" d="M15.8,31.2c-0.1,0-0.2,0-0.3,0l-15.8-2.6c-1.1-0.2-1.8-1.2-1.7-2.3c0.2-1.1,1.2-1.8,2.3-1.7l15.8,2.6
						c1.1,0.2,1.8,1.2,1.7,2.3C17.6,30.5,16.8,31.2,15.8,31.2z"/>
				</g>
				<g id="패스_445">
					<path class="st7" d="M15.8,17.8c-0.1,0-0.2,0-0.3,0l-15.8-2.6C-1.5,15.1-2.2,14-2,12.9c0.2-1.1,1.2-1.8,2.3-1.7l15.8,2.6
						c1.1,0.2,1.8,1.2,1.7,2.3C17.6,17.1,16.8,17.8,15.8,17.8z"/>
				</g>
				<g id="패스_447">
					<path class="st7" d="M15.8,4.4c-0.1,0-0.2,0-0.3,0L-0.4,1.8C-1.5,1.6-2.2,0.6-2-0.5c0.2-1.1,1.2-1.8,2.3-1.7l15.8,2.6
						c1.1,0.2,1.8,1.2,1.7,2.3C17.6,3.7,16.8,4.4,15.8,4.4z"/>
				</g>
			</g>
		</g>
	</g>
	<g id="패스_369_2_">
		<rect x="1057.8" y="6529" class="st8" width="85" height="1"/>
	</g>
	<g id="패스_368_2_">
		<path class="st7" d="M1185,6520.8c-1.1,0-2-0.9-2-2v-122.1c0-1.1,0.9-2,2-2c1.1,0,2,0.9,2,2v122.1
			C1187,6519.9,1186.1,6520.8,1185,6520.8z"/>
	</g>
	<g id="패스_366_2_">
		<path class="st7" d="M1233,6545.4c-1.1,0-2-0.9-2-2v-143.1c0-1.1,0.9-2,2-2c1.1,0,2,0.9,2,2v143.1
			C1235,6544.5,1234.1,6545.4,1233,6545.4z"/>
	</g>
	<g id="패스_370_2_">
		<path class="st7" d="M1187.8,6672.2c-0.1,0-0.1,0-0.2,0c-1.1-0.1-1.9-1.1-1.8-2.2l3.5-38.5l-2-42.8c-0.1-1.1,0.8-2,1.9-2.1
			c1.1,0,2,0.8,2.1,1.9l2,43.1l0,0.1l-3.5,38.6C1189.7,6671.4,1188.8,6672.2,1187.8,6672.2z"/>
	</g>
	<g id="패스_371_2_">
		<path class="st7" d="M1207.4,6672.7c-0.9,0-1.8-0.7-2-1.6l-4.9-25l-1.7-57.5c0-1.1,0.8-2,1.9-2.1c1.1,0,2,0.8,2.1,1.9l1.7,57.3
			l4.8,24.5c0.2,1.1-0.5,2.1-1.6,2.3C1207.7,6672.7,1207.6,6672.7,1207.4,6672.7z"/>
	</g>
	<g id="패스_372_2_">
		<path class="st7" d="M1225.3,6645.8c-0.4,0-0.8-0.1-1.2-0.4l-23.2-17.5c-0.9-0.7-1.1-1.9-0.4-2.8c0.7-0.9,1.9-1.1,2.8-0.4
			l23.2,17.5c0.9,0.7,1.1,1.9,0.4,2.8C1226.5,6645.6,1225.9,6645.8,1225.3,6645.8z"/>
	</g>
	<g id="패스_373_2_">
		<path class="st7" d="M1236,6667.7c-0.1,0-0.2,0-0.3,0c-1.1-0.2-1.8-1.2-1.6-2.3c1-6,3.6-21,4-23.2l-8.9-61.1
			c-0.2-1.1,0.6-2.1,1.7-2.3c1.1-0.2,2.1,0.6,2.3,1.7l8.9,61.4l0,0c0,0.6-0.2,1.8-0.6,4.3l-3.4,19.9
			C1237.8,6667,1236.9,6667.7,1236,6667.7z"/>
	</g>
	<g id="패스_374_2_">
		<path class="st7" d="M1217.4,6667.7c-0.6,0-1.3-0.3-1.7-0.9c-0.6-0.9-0.4-2.2,0.6-2.8l20.7-13.7c0.9-0.6,2.2-0.4,2.8,0.6
			c0.6,0.9,0.4,2.2-0.6,2.8l-20.7,13.7C1218.1,6667.6,1217.8,6667.7,1217.4,6667.7z"/>
	</g>
	<g id="패스_375_2_">
		<path class="st7" d="M1255.9,6643.8c-0.6,0-1.1-0.2-1.5-0.7l-19-21.6c-0.7-0.8-0.6-2.1,0.2-2.8c0.8-0.7,2.1-0.6,2.8,0.2l19,21.6
			c0.7,0.8,0.6,2.1-0.2,2.8C1256.8,6643.6,1256.4,6643.8,1255.9,6643.8z"/>
	</g>
	<g id="사각형_55_2_" transform="translate(1170 6518)">
		<g>
			<rect x="0" y="-0.1" class="st4" width="38" height="85.9"/>
		</g>
		<g>
			<path d="M38,85.8H0V-0.1h38V85.8z M3,82.8h32V2.9H3V82.8z"/>
		</g>
	</g>
	<g id="사각형_54_2_" transform="translate(1210 6518)">
		<g>
			<rect x="0" y="-0.1" class="st4" width="39" height="85.9"/>
		</g>
		<g>
			<path d="M39,85.8H0V-0.1h39V85.8z M3,82.8h33V2.9H3V82.8z"/>
		</g>
	</g>
	<g id="패스_367_2_">
		<rect x="1282" y="6529" class="st8" width="56.9" height="1"/>
	</g>
	<g id="타원_240" transform="translate(1218 6562)">
		<g>
			<circle class="st0" cx="3.5" cy="3.3" r="3.5"/>
		</g>
		<g>
			<path d="M3.5,6.8C1.6,6.8,0,5.3,0,3.3s1.6-3.5,3.5-3.5S7,1.4,7,3.3S5.4,6.8,3.5,6.8z M3.5,0.8C2.1,0.8,1,2,1,3.3s1.1,2.5,2.5,2.5
				S6,4.7,6,3.3S4.9,0.8,3.5,0.8z"/>
		</g>
	</g>
	<g id="타원_241" transform="translate(1234 6562)">
		<g>
			<circle class="st0" cx="3.5" cy="3.3" r="3.5"/>
		</g>
		<g>
			<path d="M3.5,6.8C1.5,6.8,0,5.3,0,3.3s1.6-3.5,3.5-3.5S7,1.4,7,3.3S5.4,6.8,3.5,6.8z M3.5,0.8C2.1,0.8,1,2,1,3.3s1.1,2.5,2.5,2.5
				S6,4.7,6,3.3S4.8,0.8,3.5,0.8z"/>
		</g>
	</g>
	<g id="타원_242" transform="translate(1218 6575)">
		<g>
			<circle class="st0" cx="3.5" cy="3.3" r="3.5"/>
		</g>
		<g>
			<path d="M3.5,6.8C1.6,6.8,0,5.3,0,3.3s1.6-3.5,3.5-3.5S7,1.4,7,3.3S5.4,6.8,3.5,6.8z M3.5,0.8C2.1,0.8,1,1.9,1,3.3
				s1.1,2.5,2.5,2.5S6,4.7,6,3.3S4.9,0.8,3.5,0.8z"/>
		</g>
	</g>
	<g id="타원_243" transform="translate(1234 6575)">
		<g>
			<circle class="st0" cx="3.5" cy="3.3" r="3.5"/>
		</g>
		<g>
			<path d="M3.5,6.8C1.5,6.8,0,5.3,0,3.3s1.6-3.5,3.5-3.5S7,1.4,7,3.3S5.4,6.8,3.5,6.8z M3.5,0.8C2.1,0.8,1,1.9,1,3.3
				s1.1,2.5,2.5,2.5S6,4.7,6,3.3S4.8,0.8,3.5,0.8z"/>
		</g>
	</g>
	<g id="타원_244" transform="translate(1218 6588)">
		<g>
			<circle class="st0" cx="3.5" cy="3.3" r="3.5"/>
		</g>
		<g>
			<path d="M3.5,6.8C1.6,6.8,0,5.2,0,3.3s1.6-3.5,3.5-3.5S7,1.4,7,3.3S5.4,6.8,3.5,6.8z M3.5,0.8C2.1,0.8,1,1.9,1,3.3
				s1.1,2.5,2.5,2.5S6,4.7,6,3.3S4.9,0.8,3.5,0.8z"/>
		</g>
	</g>
	<g id="타원_245" transform="translate(1234 6588)">
		<g>
			<circle class="st0" cx="3.5" cy="3.3" r="3.5"/>
		</g>
		<g>
			<path d="M3.5,6.8C1.5,6.8,0,5.2,0,3.3s1.6-3.5,3.5-3.5S7,1.4,7,3.3S5.4,6.8,3.5,6.8z M3.5,0.8C2.1,0.8,1,1.9,1,3.3
				s1.1,2.5,2.5,2.5S6,4.7,6,3.3S4.8,0.8,3.5,0.8z"/>
		</g>
	</g>
	<g id="타원_246" transform="translate(1193 6562)">
		<g>
			<circle class="st0" cx="3.5" cy="3.3" r="3.5"/>
		</g>
		<g>
			<path d="M3.5,6.8C1.6,6.8,0,5.3,0,3.3s1.6-3.5,3.5-3.5S7,1.4,7,3.3S5.4,6.8,3.5,6.8z M3.5,0.8C2.1,0.8,1,2,1,3.3s1.1,2.5,2.5,2.5
				S6,4.7,6,3.3S4.9,0.8,3.5,0.8z"/>
		</g>
	</g>
	<g id="타원_247" transform="translate(1178 6562)">
		<g>
			<circle class="st0" cx="3.5" cy="3.3" r="3.5"/>
		</g>
		<g>
			<path d="M3.5,6.8C1.6,6.8,0,5.3,0,3.3s1.6-3.5,3.5-3.5S7,1.4,7,3.3S5.4,6.8,3.5,6.8z M3.5,0.8C2.1,0.8,1,2,1,3.3s1.1,2.5,2.5,2.5
				S6,4.7,6,3.3S4.9,0.8,3.5,0.8z"/>
		</g>
	</g>
	<g id="타원_248" transform="translate(1193 6575)">
		<g>
			<circle class="st0" cx="3.5" cy="3.3" r="3.5"/>
		</g>
		<g>
			<path d="M3.5,6.8C1.6,6.8,0,5.3,0,3.3s1.6-3.5,3.5-3.5S7,1.4,7,3.3S5.4,6.8,3.5,6.8z M3.5,0.8C2.1,0.8,1,1.9,1,3.3
				s1.1,2.5,2.5,2.5S6,4.7,6,3.3S4.9,0.8,3.5,0.8z"/>
		</g>
	</g>
	<g id="타원_249" transform="translate(1178 6575)">
		<g>
			<circle class="st0" cx="3.5" cy="3.3" r="3.5"/>
		</g>
		<g>
			<path d="M3.5,6.8C1.6,6.8,0,5.3,0,3.3s1.6-3.5,3.5-3.5S7,1.4,7,3.3S5.4,6.8,3.5,6.8z M3.5,0.8C2.1,0.8,1,1.9,1,3.3
				s1.1,2.5,2.5,2.5S6,4.7,6,3.3S4.9,0.8,3.5,0.8z"/>
		</g>
	</g>
	<g id="타원_250" transform="translate(1193 6588)">
		<g>
			<circle class="st0" cx="3.5" cy="3.3" r="3.5"/>
		</g>
		<g>
			<path d="M3.5,6.8C1.6,6.8,0,5.2,0,3.3s1.6-3.5,3.5-3.5S7,1.4,7,3.3S5.4,6.8,3.5,6.8z M3.5,0.8C2.1,0.8,1,1.9,1,3.3
				s1.1,2.5,2.5,2.5S6,4.7,6,3.3S4.9,0.8,3.5,0.8z"/>
		</g>
	</g>
	<g id="타원_251" transform="translate(1178 6588)">
		<g>
			<circle class="st0" cx="3.5" cy="3.3" r="3.5"/>
		</g>
		<g>
			<path d="M3.5,6.8C1.6,6.8,0,5.2,0,3.3s1.6-3.5,3.5-3.5S7,1.4,7,3.3S5.4,6.8,3.5,6.8z M3.5,0.8C2.1,0.8,1,1.9,1,3.3
				s1.1,2.5,2.5,2.5S6,4.7,6,3.3S4.9,0.8,3.5,0.8z"/>
		</g>
	</g>
</g>
</svg>
