<?xml version="1.0" encoding="utf-8"?>
<!-- Generator: Adobe Illustrator 24.0.2, SVG Export Plug-In . SVG Version: 6.00 Build 0)  -->
<svg version="1.1" id="레이어_1" xmlns="http://www.w3.org/2000/svg" xmlns:xlink="http://www.w3.org/1999/xlink" x="0px"
	 y="0px" viewBox="0 0 284 284" style="enable-background:new 0 0 284 284;" xml:space="preserve">
<style type="text/css">
	.st0{fill:#FFFFFF;}
	.st1{fill:#707070;}
	.st2{fill:#313131;}
	.st3{fill:#69BAAF;}
</style>
<g id="그룹_249" transform="translate(-576.795 -6390.938)">
	<g id="패스_388">
		<path class="st0" d="M718.9,6390.9c78.4,0,142,63.6,142,142s-63.6,142-142,142s-142-63.6-142-142S640.5,6390.9,718.9,6390.9
			C718.9,6390.9,718.9,6390.9,718.9,6390.9z"/>
	</g>
	<g id="패스_369">
		<rect x="579.8" y="6529" class="st1" width="83.7" height="1"/>
	</g>
	<g id="패스_368">
		<path class="st2" d="M705.8,6520.8c-1.1,0-2-0.9-2-2v-122.4c0-1.1,0.9-2,2-2s2,0.9,2,2v122.4
			C707.7,6519.9,706.9,6520.8,705.8,6520.8z"/>
	</g>
	<g id="패스_366">
		<path class="st2" d="M753.7,6545.4c-1.1,0-2-0.9-2-2v-144c0-1.1,0.9-2,2-2c1.1,0,2,0.9,2,2v144
			C755.7,6544.5,754.8,6545.4,753.7,6545.4z"/>
	</g>
	<g id="패스_370">
		<path class="st2" d="M708.4,6672.8c-0.1,0-0.1,0-0.2,0c-1.1-0.1-1.9-1.1-1.8-2.2l3.7-39.1l-2-42.8c-0.1-1.1,0.8-2,1.9-2.1
			c1.1,0,2,0.8,2.1,1.9l2,43.1l0,0.1l-3.7,39.2C710.3,6672,709.4,6672.8,708.4,6672.8z"/>
	</g>
	<g id="패스_371">
		<path class="st2" d="M728.1,6673.5c-0.9,0-1.8-0.7-2-1.6l-4.8-25.8l-1.7-57.5c0-1.1,0.8-2,1.9-2.1c1.1,0,2,0.8,2.1,1.9l1.7,57.3
			l4.7,25.3c0.2,1.1-0.5,2.1-1.6,2.3C728.4,6673.5,728.3,6673.5,728.1,6673.5z"/>
	</g>
	<g id="패스_372">
		<path class="st2" d="M746.1,6645.8c-0.4,0-0.8-0.1-1.2-0.4l-23.2-17.5c-0.9-0.7-1.1-1.9-0.4-2.8c0.7-0.9,1.9-1.1,2.8-0.4
			l23.2,17.5c0.9,0.7,1.1,1.9,0.4,2.8C747.3,6645.6,746.7,6645.8,746.1,6645.8z"/>
	</g>
	<g id="패스_373">
		<path class="st2" d="M756.2,6667.3c-0.1,0-0.3,0-0.4,0c-1.1-0.2-1.8-1.3-1.6-2.3l4.5-22.8l-8.9-61c-0.2-1.1,0.6-2.1,1.7-2.3
			c1.1-0.2,2.1,0.6,2.3,1.7l9,61.7l-4.7,23.5C758,6666.6,757.1,6667.3,756.2,6667.3z"/>
	</g>
	<g id="패스_374">
		<path class="st2" d="M738.1,6667.7c-0.6,0-1.3-0.3-1.7-0.9c-0.6-0.9-0.4-2.2,0.6-2.8l20.7-13.7c0.9-0.6,2.2-0.4,2.8,0.6
			c0.6,0.9,0.4,2.2-0.6,2.8l-20.7,13.7C738.9,6667.6,738.5,6667.7,738.1,6667.7z"/>
	</g>
	<g id="패스_375">
		<path class="st2" d="M776.7,6643.8c-0.6,0-1.1-0.2-1.5-0.7l-19-21.6c-0.7-0.8-0.6-2.1,0.2-2.8c0.8-0.7,2.1-0.6,2.8,0.2l19,21.6
			c0.7,0.8,0.6,2.1-0.2,2.8C777.6,6643.6,777.1,6643.8,776.7,6643.8z"/>
	</g>
	<g id="사각형_55" transform="translate(691 6518)">
		<g>
			<rect x="0" y="-0.1" class="st3" width="38" height="85.9"/>
		</g>
		<g>
			<path d="M38,85.8H0V-0.1h38V85.8z M3,82.8h32V2.9H3V82.8z"/>
		</g>
	</g>
	<g id="사각형_54" transform="translate(732 6518)">
		<g>
			<rect x="0" y="-0.1" class="st3" width="38" height="85.9"/>
		</g>
		<g>
			<path d="M38,85.8H0V-0.1h38V85.8z M3,82.8h32V2.9H3V82.8z"/>
		</g>
	</g>
	<g id="패스_367">
		<rect x="802.8" y="6529" class="st1" width="57.1" height="1"/>
	</g>
	<g id="타원_209" transform="translate(739 6561)">
		<g>
			<circle class="st0" cx="3.5" cy="3.3" r="3.5"/>
		</g>
		<g>
			<path d="M3.5,6.8C1.6,6.8,0,5.3,0,3.3s1.6-3.5,3.5-3.5S7,1.4,7,3.3S5.4,6.8,3.5,6.8z M3.5,0.8C2.1,0.8,1,2,1,3.3s1.1,2.5,2.5,2.5
				S6,4.7,6,3.3S4.9,0.8,3.5,0.8z"/>
		</g>
	</g>
	<g id="타원_237" transform="translate(755 6561)">
		<g>
			<circle class="st0" cx="3.5" cy="3.3" r="3.5"/>
		</g>
		<g>
			<path d="M3.5,6.8C1.5,6.8,0,5.3,0,3.3s1.6-3.5,3.5-3.5S7,1.4,7,3.3S5.4,6.8,3.5,6.8z M3.5,0.8C2.1,0.8,1,2,1,3.3s1.1,2.5,2.5,2.5
				S6,4.7,6,3.3S4.8,0.8,3.5,0.8z"/>
		</g>
	</g>
	<g id="타원_211" transform="translate(739 6574)">
		<g>
			<circle class="st0" cx="3.5" cy="3.3" r="3.5"/>
		</g>
		<g>
			<path d="M3.5,6.8C1.6,6.8,0,5.3,0,3.3s1.6-3.5,3.5-3.5S7,1.4,7,3.3S5.4,6.8,3.5,6.8z M3.5,0.8C2.1,0.8,1,1.9,1,3.3
				s1.1,2.5,2.5,2.5S6,4.7,6,3.3S4.9,0.8,3.5,0.8z"/>
		</g>
	</g>
	<g id="타원_238" transform="translate(755 6574)">
		<g>
			<circle class="st0" cx="3.5" cy="3.3" r="3.5"/>
		</g>
		<g>
			<path d="M3.5,6.8C1.5,6.8,0,5.3,0,3.3s1.6-3.5,3.5-3.5S7,1.4,7,3.3S5.4,6.8,3.5,6.8z M3.5,0.8C2.1,0.8,1,1.9,1,3.3
				s1.1,2.5,2.5,2.5S6,4.7,6,3.3S4.8,0.8,3.5,0.8z"/>
		</g>
	</g>
	<g id="타원_213" transform="translate(739 6587)">
		<g>
			<circle class="st0" cx="3.5" cy="3.3" r="3.5"/>
		</g>
		<g>
			<path d="M3.5,6.8C1.6,6.8,0,5.2,0,3.3s1.6-3.5,3.5-3.5S7,1.4,7,3.3S5.4,6.8,3.5,6.8z M3.5,0.8C2.1,0.8,1,1.9,1,3.3
				s1.1,2.5,2.5,2.5S6,4.7,6,3.3S4.9,0.8,3.5,0.8z"/>
		</g>
	</g>
	<g id="타원_239" transform="translate(755 6587)">
		<g>
			<circle class="st0" cx="3.5" cy="3.3" r="3.5"/>
		</g>
		<g>
			<path d="M3.5,6.8C1.5,6.8,0,5.2,0,3.3s1.6-3.5,3.5-3.5S7,1.4,7,3.3S5.4,6.8,3.5,6.8z M3.5,0.8C2.1,0.8,1,1.9,1,3.3
				s1.1,2.5,2.5,2.5S6,4.7,6,3.3S4.8,0.8,3.5,0.8z"/>
		</g>
	</g>
	<g id="타원_214" transform="translate(714 6561)">
		<g>
			<circle class="st0" cx="3.5" cy="3.3" r="3.5"/>
		</g>
		<g>
			<path d="M3.5,6.8C1.6,6.8,0,5.3,0,3.3s1.6-3.5,3.5-3.5S7,1.4,7,3.3S5.4,6.8,3.5,6.8z M3.5,0.8C2.1,0.8,1,2,1,3.3s1.1,2.5,2.5,2.5
				S6,4.7,6,3.3S4.9,0.8,3.5,0.8z"/>
		</g>
	</g>
	<g id="타원_234" transform="translate(699 6561)">
		<g>
			<circle class="st0" cx="3.5" cy="3.3" r="3.5"/>
		</g>
		<g>
			<path d="M3.5,6.8C1.6,6.8,0,5.3,0,3.3s1.6-3.5,3.5-3.5S7,1.4,7,3.3S5.4,6.8,3.5,6.8z M3.5,0.8C2.1,0.8,1,2,1,3.3s1.1,2.5,2.5,2.5
				S6,4.7,6,3.3S4.9,0.8,3.5,0.8z"/>
		</g>
	</g>
	<g id="타원_216" transform="translate(714 6574)">
		<g>
			<circle class="st0" cx="3.5" cy="3.3" r="3.5"/>
		</g>
		<g>
			<path d="M3.5,6.8C1.6,6.8,0,5.3,0,3.3s1.6-3.5,3.5-3.5S7,1.4,7,3.3S5.4,6.8,3.5,6.8z M3.5,0.8C2.1,0.8,1,1.9,1,3.3
				s1.1,2.5,2.5,2.5S6,4.7,6,3.3S4.9,0.8,3.5,0.8z"/>
		</g>
	</g>
	<g id="타원_235" transform="translate(699 6574)">
		<g>
			<circle class="st0" cx="3.5" cy="3.3" r="3.5"/>
		</g>
		<g>
			<path d="M3.5,6.8C1.6,6.8,0,5.3,0,3.3s1.6-3.5,3.5-3.5S7,1.4,7,3.3S5.4,6.8,3.5,6.8z M3.5,0.8C2.1,0.8,1,1.9,1,3.3
				s1.1,2.5,2.5,2.5S6,4.7,6,3.3S4.9,0.8,3.5,0.8z"/>
		</g>
	</g>
	<g id="타원_218" transform="translate(714 6587)">
		<g>
			<circle class="st0" cx="3.5" cy="3.3" r="3.5"/>
		</g>
		<g>
			<path d="M3.5,6.8C1.6,6.8,0,5.2,0,3.3s1.6-3.5,3.5-3.5S7,1.4,7,3.3S5.4,6.8,3.5,6.8z M3.5,0.8C2.1,0.8,1,1.9,1,3.3
				s1.1,2.5,2.5,2.5S6,4.7,6,3.3S4.9,0.8,3.5,0.8z"/>
		</g>
	</g>
	<g id="타원_236" transform="translate(699 6587)">
		<g>
			<circle class="st0" cx="3.5" cy="3.3" r="3.5"/>
		</g>
		<g>
			<path d="M3.5,6.8C1.6,6.8,0,5.2,0,3.3s1.6-3.5,3.5-3.5S7,1.4,7,3.3S5.4,6.8,3.5,6.8z M3.5,0.8C2.1,0.8,1,1.9,1,3.3
				s1.1,2.5,2.5,2.5S6,4.7,6,3.3S4.9,0.8,3.5,0.8z"/>
		</g>
	</g>
</g>
</svg>
